<mxfile host="app.diagrams.net" modified="2024-03-28T15:58:06.347Z" agent="Mozilla/5.0 (X11; Ubuntu; Linux x86_64; rv:123.0) Gecko/20100101 Firefox/123.0" etag="PzupPZBPjfR9w7-k2T5G" version="21.3.7" type="github">
  <diagram id="yPxyJZ8AM_hMuL3Unpa9" name="gitflow">
    <mxGraphModel dx="1226" dy="678" grid="1" gridSize="10" guides="1" tooltips="1" connect="1" arrows="1" fold="1" page="1" pageScale="1" pageWidth="850" pageHeight="1100" math="0" shadow="0">
      <root>
        <mxCell id="0" />
        <mxCell id="1" parent="0" />
        <mxCell id="0hNowcc2so53dw_iK4bf-199" value="2" style="whiteSpace=wrap;html=1;aspect=fixed;strokeWidth=0.5;fillColor=#f8cecc;strokeColor=#b85450;movable=1;resizable=1;rotatable=1;deletable=1;editable=1;locked=0;connectable=1;" parent="1" vertex="1">
          <mxGeometry x="80" y="159" width="40" height="40" as="geometry" />
        </mxCell>
        <mxCell id="0hNowcc2so53dw_iK4bf-200" value="4" style="whiteSpace=wrap;html=1;aspect=fixed;strokeWidth=0.5;fillColor=#f8cecc;strokeColor=#b85450;movable=1;resizable=1;rotatable=1;deletable=1;editable=1;locked=0;connectable=1;" parent="1" vertex="1">
          <mxGeometry x="120" y="159" width="40" height="40" as="geometry" />
        </mxCell>
        <mxCell id="0hNowcc2so53dw_iK4bf-201" value="5" style="whiteSpace=wrap;html=1;aspect=fixed;strokeWidth=0.5;fillColor=#f8cecc;strokeColor=#b85450;movable=1;resizable=1;rotatable=1;deletable=1;editable=1;locked=0;connectable=1;" parent="1" vertex="1">
          <mxGeometry x="160" y="159" width="40" height="40" as="geometry" />
        </mxCell>
        <mxCell id="0hNowcc2so53dw_iK4bf-202" value="7" style="whiteSpace=wrap;html=1;aspect=fixed;strokeWidth=0.5;fillColor=#f8cecc;strokeColor=#b85450;movable=1;resizable=1;rotatable=1;deletable=1;editable=1;locked=0;connectable=1;" parent="1" vertex="1">
          <mxGeometry x="200" y="159" width="40" height="40" as="geometry" />
        </mxCell>
        <mxCell id="0hNowcc2so53dw_iK4bf-203" value="∞" style="whiteSpace=wrap;html=1;aspect=fixed;strokeWidth=0.5;fillColor=#f8cecc;strokeColor=#b85450;movable=1;resizable=1;rotatable=1;deletable=1;editable=1;locked=0;connectable=1;" parent="1" vertex="1">
          <mxGeometry x="240" y="159" width="40" height="40" as="geometry" />
        </mxCell>
        <mxCell id="0hNowcc2so53dw_iK4bf-210" value="1" style="text;html=1;strokeColor=none;fillColor=none;align=center;verticalAlign=middle;whiteSpace=wrap;rounded=0;movable=1;resizable=1;rotatable=1;deletable=1;editable=1;locked=0;connectable=1;" parent="1" vertex="1">
          <mxGeometry x="80" y="139" width="40" height="20" as="geometry" />
        </mxCell>
        <mxCell id="0hNowcc2so53dw_iK4bf-212" value="2" style="text;html=1;strokeColor=none;fillColor=none;align=center;verticalAlign=middle;whiteSpace=wrap;rounded=0;movable=1;resizable=1;rotatable=1;deletable=1;editable=1;locked=0;connectable=1;" parent="1" vertex="1">
          <mxGeometry x="120" y="139" width="40" height="20" as="geometry" />
        </mxCell>
        <mxCell id="0hNowcc2so53dw_iK4bf-213" value="3" style="text;html=1;strokeColor=none;fillColor=none;align=center;verticalAlign=middle;whiteSpace=wrap;rounded=0;movable=1;resizable=1;rotatable=1;deletable=1;editable=1;locked=0;connectable=1;" parent="1" vertex="1">
          <mxGeometry x="160" y="139" width="40" height="20" as="geometry" />
        </mxCell>
        <mxCell id="0hNowcc2so53dw_iK4bf-214" value="4" style="text;html=1;strokeColor=none;fillColor=none;align=center;verticalAlign=middle;whiteSpace=wrap;rounded=0;movable=1;resizable=1;rotatable=1;deletable=1;editable=1;locked=0;connectable=1;" parent="1" vertex="1">
          <mxGeometry x="200" y="139" width="40" height="20" as="geometry" />
        </mxCell>
        <mxCell id="0hNowcc2so53dw_iK4bf-215" value="5" style="text;html=1;strokeColor=none;fillColor=none;align=center;verticalAlign=middle;whiteSpace=wrap;rounded=0;movable=1;resizable=1;rotatable=1;deletable=1;editable=1;locked=0;connectable=1;" parent="1" vertex="1">
          <mxGeometry x="240" y="139" width="40" height="20" as="geometry" />
        </mxCell>
        <mxCell id="0hNowcc2so53dw_iK4bf-217" value="L" style="text;html=1;strokeColor=none;fillColor=none;align=center;verticalAlign=middle;whiteSpace=wrap;rounded=0;movable=1;resizable=1;rotatable=1;deletable=1;editable=1;locked=0;connectable=1;" parent="1" vertex="1">
          <mxGeometry x="40" y="159" width="40" height="40" as="geometry" />
        </mxCell>
        <mxCell id="0hNowcc2so53dw_iK4bf-235" value="1" style="whiteSpace=wrap;html=1;aspect=fixed;strokeWidth=0.5;fillColor=#f8cecc;strokeColor=#b85450;movable=1;resizable=1;rotatable=1;deletable=1;editable=1;locked=0;connectable=1;" parent="1" vertex="1">
          <mxGeometry x="360" y="159" width="40" height="40" as="geometry" />
        </mxCell>
        <mxCell id="0hNowcc2so53dw_iK4bf-236" value="2" style="whiteSpace=wrap;html=1;aspect=fixed;strokeWidth=0.5;fillColor=#f8cecc;strokeColor=#b85450;movable=1;resizable=1;rotatable=1;deletable=1;editable=1;locked=0;connectable=1;" parent="1" vertex="1">
          <mxGeometry x="400" y="159" width="40" height="40" as="geometry" />
        </mxCell>
        <mxCell id="0hNowcc2so53dw_iK4bf-237" value="3" style="whiteSpace=wrap;html=1;aspect=fixed;strokeWidth=0.5;fillColor=#f8cecc;strokeColor=#b85450;movable=1;resizable=1;rotatable=1;deletable=1;editable=1;locked=0;connectable=1;" parent="1" vertex="1">
          <mxGeometry x="440" y="159" width="40" height="40" as="geometry" />
        </mxCell>
        <mxCell id="0hNowcc2so53dw_iK4bf-238" value="6" style="whiteSpace=wrap;html=1;aspect=fixed;strokeWidth=0.5;fillColor=#f8cecc;strokeColor=#b85450;movable=1;resizable=1;rotatable=1;deletable=1;editable=1;locked=0;connectable=1;" parent="1" vertex="1">
          <mxGeometry x="480" y="159" width="40" height="40" as="geometry" />
        </mxCell>
        <mxCell id="0hNowcc2so53dw_iK4bf-239" value="∞" style="whiteSpace=wrap;html=1;aspect=fixed;strokeWidth=0.5;fillColor=#f8cecc;strokeColor=#b85450;movable=1;resizable=1;rotatable=1;deletable=1;editable=1;locked=0;connectable=1;" parent="1" vertex="1">
          <mxGeometry x="520" y="159" width="40" height="40" as="geometry" />
        </mxCell>
        <mxCell id="0hNowcc2so53dw_iK4bf-245" value="1" style="text;html=1;strokeColor=none;fillColor=none;align=center;verticalAlign=middle;whiteSpace=wrap;rounded=0;movable=1;resizable=1;rotatable=1;deletable=1;editable=1;locked=0;connectable=1;" parent="1" vertex="1">
          <mxGeometry x="360" y="139" width="40" height="20" as="geometry" />
        </mxCell>
        <mxCell id="0hNowcc2so53dw_iK4bf-246" value="2" style="text;html=1;strokeColor=none;fillColor=none;align=center;verticalAlign=middle;whiteSpace=wrap;rounded=0;movable=1;resizable=1;rotatable=1;deletable=1;editable=1;locked=0;connectable=1;" parent="1" vertex="1">
          <mxGeometry x="400" y="139" width="40" height="20" as="geometry" />
        </mxCell>
        <mxCell id="0hNowcc2so53dw_iK4bf-247" value="3" style="text;html=1;strokeColor=none;fillColor=none;align=center;verticalAlign=middle;whiteSpace=wrap;rounded=0;movable=1;resizable=1;rotatable=1;deletable=1;editable=1;locked=0;connectable=1;" parent="1" vertex="1">
          <mxGeometry x="440" y="139" width="40" height="20" as="geometry" />
        </mxCell>
        <mxCell id="0hNowcc2so53dw_iK4bf-248" value="4" style="text;html=1;strokeColor=none;fillColor=none;align=center;verticalAlign=middle;whiteSpace=wrap;rounded=0;movable=1;resizable=1;rotatable=1;deletable=1;editable=1;locked=0;connectable=1;" parent="1" vertex="1">
          <mxGeometry x="480" y="139" width="40" height="20" as="geometry" />
        </mxCell>
        <mxCell id="0hNowcc2so53dw_iK4bf-249" value="5" style="text;html=1;strokeColor=none;fillColor=none;align=center;verticalAlign=middle;whiteSpace=wrap;rounded=0;movable=1;resizable=1;rotatable=1;deletable=1;editable=1;locked=0;connectable=1;" parent="1" vertex="1">
          <mxGeometry x="520" y="139" width="40" height="20" as="geometry" />
        </mxCell>
        <mxCell id="0hNowcc2so53dw_iK4bf-251" value="R" style="text;html=1;strokeColor=none;fillColor=none;align=center;verticalAlign=middle;whiteSpace=wrap;rounded=0;movable=1;resizable=1;rotatable=1;deletable=1;editable=1;locked=0;connectable=1;" parent="1" vertex="1">
          <mxGeometry x="320" y="159" width="40" height="40" as="geometry" />
        </mxCell>
        <mxCell id="iKyUlA0jwbk502aVOzwF-1" value="2" style="whiteSpace=wrap;html=1;aspect=fixed;strokeWidth=0.5;fillColor=#dae8fc;strokeColor=#6c8ebf;movable=1;resizable=1;rotatable=1;deletable=1;editable=1;locked=0;connectable=1;" vertex="1" parent="1">
          <mxGeometry x="160" y="40" width="40" height="40" as="geometry" />
        </mxCell>
        <mxCell id="iKyUlA0jwbk502aVOzwF-2" value="4" style="whiteSpace=wrap;html=1;aspect=fixed;strokeWidth=0.5;fillColor=#dae8fc;strokeColor=#6c8ebf;movable=1;resizable=1;rotatable=1;deletable=1;editable=1;locked=0;connectable=1;" vertex="1" parent="1">
          <mxGeometry x="200" y="40" width="40" height="40" as="geometry" />
        </mxCell>
        <mxCell id="iKyUlA0jwbk502aVOzwF-3" value="5" style="whiteSpace=wrap;html=1;aspect=fixed;strokeWidth=0.5;fillColor=#dae8fc;strokeColor=#6c8ebf;movable=1;resizable=1;rotatable=1;deletable=1;editable=1;locked=0;connectable=1;" vertex="1" parent="1">
          <mxGeometry x="240" y="40" width="40" height="40" as="geometry" />
        </mxCell>
        <mxCell id="iKyUlA0jwbk502aVOzwF-4" value="7" style="whiteSpace=wrap;html=1;aspect=fixed;strokeWidth=0.5;fillColor=#dae8fc;strokeColor=#6c8ebf;movable=1;resizable=1;rotatable=1;deletable=1;editable=1;locked=0;connectable=1;" vertex="1" parent="1">
          <mxGeometry x="280" y="40" width="40" height="40" as="geometry" />
        </mxCell>
        <mxCell id="iKyUlA0jwbk502aVOzwF-6" value="9" style="text;html=1;strokeColor=none;fillColor=none;align=center;verticalAlign=middle;whiteSpace=wrap;rounded=0;movable=1;resizable=1;rotatable=1;deletable=1;editable=1;locked=0;connectable=1;" vertex="1" parent="1">
          <mxGeometry x="160" y="20" width="40" height="20" as="geometry" />
        </mxCell>
        <mxCell id="iKyUlA0jwbk502aVOzwF-7" value="10" style="text;html=1;strokeColor=none;fillColor=none;align=center;verticalAlign=middle;whiteSpace=wrap;rounded=0;movable=1;resizable=1;rotatable=1;deletable=1;editable=1;locked=0;connectable=1;" vertex="1" parent="1">
          <mxGeometry x="200" y="20" width="40" height="20" as="geometry" />
        </mxCell>
        <mxCell id="iKyUlA0jwbk502aVOzwF-8" value="11" style="text;html=1;strokeColor=none;fillColor=none;align=center;verticalAlign=middle;whiteSpace=wrap;rounded=0;movable=1;resizable=1;rotatable=1;deletable=1;editable=1;locked=0;connectable=1;" vertex="1" parent="1">
          <mxGeometry x="240" y="20" width="40" height="20" as="geometry" />
        </mxCell>
        <mxCell id="iKyUlA0jwbk502aVOzwF-9" value="12" style="text;html=1;strokeColor=none;fillColor=none;align=center;verticalAlign=middle;whiteSpace=wrap;rounded=0;movable=1;resizable=1;rotatable=1;deletable=1;editable=1;locked=0;connectable=1;" vertex="1" parent="1">
          <mxGeometry x="280" y="20" width="40" height="20" as="geometry" />
        </mxCell>
        <mxCell id="iKyUlA0jwbk502aVOzwF-11" value="A" style="text;html=1;strokeColor=none;fillColor=none;align=center;verticalAlign=middle;whiteSpace=wrap;rounded=0;movable=1;resizable=1;rotatable=1;deletable=1;editable=1;locked=0;connectable=1;" vertex="1" parent="1">
          <mxGeometry x="80" y="40" width="40" height="40" as="geometry" />
        </mxCell>
        <mxCell id="iKyUlA0jwbk502aVOzwF-12" value="1" style="whiteSpace=wrap;html=1;aspect=fixed;strokeWidth=0.5;fillColor=#dae8fc;strokeColor=#6c8ebf;movable=1;resizable=1;rotatable=1;deletable=1;editable=1;locked=0;connectable=1;" vertex="1" parent="1">
          <mxGeometry x="320" y="40" width="40" height="40" as="geometry" />
        </mxCell>
        <mxCell id="iKyUlA0jwbk502aVOzwF-13" value="2" style="whiteSpace=wrap;html=1;aspect=fixed;strokeWidth=0.5;fillColor=#dae8fc;strokeColor=#6c8ebf;movable=1;resizable=1;rotatable=1;deletable=1;editable=1;locked=0;connectable=1;" vertex="1" parent="1">
          <mxGeometry x="360" y="40" width="40" height="40" as="geometry" />
        </mxCell>
        <mxCell id="iKyUlA0jwbk502aVOzwF-14" value="3" style="whiteSpace=wrap;html=1;aspect=fixed;strokeWidth=0.5;fillColor=#dae8fc;strokeColor=#6c8ebf;movable=1;resizable=1;rotatable=1;deletable=1;editable=1;locked=0;connectable=1;" vertex="1" parent="1">
          <mxGeometry x="400" y="40" width="40" height="40" as="geometry" />
        </mxCell>
        <mxCell id="iKyUlA0jwbk502aVOzwF-15" value="6" style="whiteSpace=wrap;html=1;aspect=fixed;strokeWidth=0.5;fillColor=#dae8fc;strokeColor=#6c8ebf;movable=1;resizable=1;rotatable=1;deletable=1;editable=1;locked=0;connectable=1;" vertex="1" parent="1">
          <mxGeometry x="440" y="40" width="40" height="40" as="geometry" />
        </mxCell>
        <mxCell id="iKyUlA0jwbk502aVOzwF-16" value="…" style="whiteSpace=wrap;html=1;aspect=fixed;strokeWidth=0.5;fillColor=#dae8fc;strokeColor=#6c8ebf;movable=1;resizable=1;rotatable=1;deletable=1;editable=1;locked=0;connectable=1;" vertex="1" parent="1">
          <mxGeometry x="480" y="40" width="40" height="40" as="geometry" />
        </mxCell>
        <mxCell id="iKyUlA0jwbk502aVOzwF-17" value="13" style="text;html=1;strokeColor=none;fillColor=none;align=center;verticalAlign=middle;whiteSpace=wrap;rounded=0;movable=1;resizable=1;rotatable=1;deletable=1;editable=1;locked=0;connectable=1;" vertex="1" parent="1">
          <mxGeometry x="320" y="20" width="40" height="20" as="geometry" />
        </mxCell>
        <mxCell id="iKyUlA0jwbk502aVOzwF-18" value="14" style="text;html=1;strokeColor=none;fillColor=none;align=center;verticalAlign=middle;whiteSpace=wrap;rounded=0;movable=1;resizable=1;rotatable=1;deletable=1;editable=1;locked=0;connectable=1;" vertex="1" parent="1">
          <mxGeometry x="360" y="20" width="40" height="20" as="geometry" />
        </mxCell>
        <mxCell id="iKyUlA0jwbk502aVOzwF-19" value="15" style="text;html=1;strokeColor=none;fillColor=none;align=center;verticalAlign=middle;whiteSpace=wrap;rounded=0;movable=1;resizable=1;rotatable=1;deletable=1;editable=1;locked=0;connectable=1;" vertex="1" parent="1">
          <mxGeometry x="400" y="20" width="40" height="20" as="geometry" />
        </mxCell>
        <mxCell id="iKyUlA0jwbk502aVOzwF-20" value="16" style="text;html=1;strokeColor=none;fillColor=none;align=center;verticalAlign=middle;whiteSpace=wrap;rounded=0;movable=1;resizable=1;rotatable=1;deletable=1;editable=1;locked=0;connectable=1;" vertex="1" parent="1">
          <mxGeometry x="440" y="20" width="40" height="20" as="geometry" />
        </mxCell>
        <mxCell id="iKyUlA0jwbk502aVOzwF-21" value="17" style="text;html=1;strokeColor=none;fillColor=none;align=center;verticalAlign=middle;whiteSpace=wrap;rounded=0;movable=1;resizable=1;rotatable=1;deletable=1;editable=1;locked=0;connectable=1;" vertex="1" parent="1">
          <mxGeometry x="480" y="20" width="40" height="20" as="geometry" />
        </mxCell>
        <mxCell id="iKyUlA0jwbk502aVOzwF-23" value="…" style="whiteSpace=wrap;html=1;aspect=fixed;strokeWidth=0.5;fillColor=#dae8fc;strokeColor=#6c8ebf;movable=1;resizable=1;rotatable=1;deletable=1;editable=1;locked=0;connectable=1;" vertex="1" parent="1">
          <mxGeometry x="120" y="40" width="40" height="40" as="geometry" />
        </mxCell>
        <mxCell id="iKyUlA0jwbk502aVOzwF-24" value="8" style="text;html=1;strokeColor=none;fillColor=none;align=center;verticalAlign=middle;whiteSpace=wrap;rounded=0;movable=1;resizable=1;rotatable=1;deletable=1;editable=1;locked=0;connectable=1;" vertex="1" parent="1">
          <mxGeometry x="120" y="20" width="40" height="20" as="geometry" />
        </mxCell>
        <mxCell id="iKyUlA0jwbk502aVOzwF-25" value="i" style="text;html=1;strokeColor=none;fillColor=none;align=center;verticalAlign=middle;whiteSpace=wrap;rounded=0;movable=1;resizable=1;rotatable=1;deletable=1;editable=1;locked=0;connectable=1;" vertex="1" parent="1">
          <mxGeometry x="80" y="199" width="40" height="20" as="geometry" />
        </mxCell>
        <mxCell id="iKyUlA0jwbk502aVOzwF-26" value="j" style="text;html=1;strokeColor=none;fillColor=none;align=center;verticalAlign=middle;whiteSpace=wrap;rounded=0;movable=1;resizable=1;rotatable=1;deletable=1;editable=1;locked=0;connectable=1;" vertex="1" parent="1">
          <mxGeometry x="360" y="199" width="40" height="20" as="geometry" />
        </mxCell>
        <mxCell id="iKyUlA0jwbk502aVOzwF-27" value="(a)" style="text;html=1;strokeColor=none;fillColor=none;align=center;verticalAlign=middle;whiteSpace=wrap;rounded=0;movable=1;resizable=1;rotatable=1;deletable=1;editable=1;locked=0;connectable=1;" vertex="1" parent="1">
          <mxGeometry x="300" y="219" width="40" height="20" as="geometry" />
        </mxCell>
        <mxCell id="iKyUlA0jwbk502aVOzwF-28" value="2" style="whiteSpace=wrap;html=1;aspect=fixed;strokeWidth=0.5;fillColor=#f8cecc;strokeColor=#b85450;movable=1;resizable=1;rotatable=1;deletable=1;editable=1;locked=0;connectable=1;" vertex="1" parent="1">
          <mxGeometry x="79" y="439" width="40" height="40" as="geometry" />
        </mxCell>
        <mxCell id="iKyUlA0jwbk502aVOzwF-29" value="4" style="whiteSpace=wrap;html=1;aspect=fixed;strokeWidth=0.5;fillColor=#f8cecc;strokeColor=#b85450;movable=1;resizable=1;rotatable=1;deletable=1;editable=1;locked=0;connectable=1;" vertex="1" parent="1">
          <mxGeometry x="119" y="439" width="40" height="40" as="geometry" />
        </mxCell>
        <mxCell id="iKyUlA0jwbk502aVOzwF-30" value="5" style="whiteSpace=wrap;html=1;aspect=fixed;strokeWidth=0.5;fillColor=#f8cecc;strokeColor=#b85450;movable=1;resizable=1;rotatable=1;deletable=1;editable=1;locked=0;connectable=1;" vertex="1" parent="1">
          <mxGeometry x="159" y="439" width="40" height="40" as="geometry" />
        </mxCell>
        <mxCell id="iKyUlA0jwbk502aVOzwF-31" value="7" style="whiteSpace=wrap;html=1;aspect=fixed;strokeWidth=0.5;fillColor=#f8cecc;strokeColor=#b85450;movable=1;resizable=1;rotatable=1;deletable=1;editable=1;locked=0;connectable=1;" vertex="1" parent="1">
          <mxGeometry x="199" y="439" width="40" height="40" as="geometry" />
        </mxCell>
        <mxCell id="iKyUlA0jwbk502aVOzwF-32" value="∞" style="whiteSpace=wrap;html=1;aspect=fixed;strokeWidth=0.5;fillColor=#f8cecc;strokeColor=#b85450;movable=1;resizable=1;rotatable=1;deletable=1;editable=1;locked=0;connectable=1;" vertex="1" parent="1">
          <mxGeometry x="239" y="439" width="40" height="40" as="geometry" />
        </mxCell>
        <mxCell id="iKyUlA0jwbk502aVOzwF-33" value="1" style="text;html=1;strokeColor=none;fillColor=none;align=center;verticalAlign=middle;whiteSpace=wrap;rounded=0;movable=1;resizable=1;rotatable=1;deletable=1;editable=1;locked=0;connectable=1;" vertex="1" parent="1">
          <mxGeometry x="79" y="419" width="40" height="20" as="geometry" />
        </mxCell>
        <mxCell id="iKyUlA0jwbk502aVOzwF-34" value="2" style="text;html=1;strokeColor=none;fillColor=none;align=center;verticalAlign=middle;whiteSpace=wrap;rounded=0;movable=1;resizable=1;rotatable=1;deletable=1;editable=1;locked=0;connectable=1;" vertex="1" parent="1">
          <mxGeometry x="119" y="419" width="40" height="20" as="geometry" />
        </mxCell>
        <mxCell id="iKyUlA0jwbk502aVOzwF-35" value="3" style="text;html=1;strokeColor=none;fillColor=none;align=center;verticalAlign=middle;whiteSpace=wrap;rounded=0;movable=1;resizable=1;rotatable=1;deletable=1;editable=1;locked=0;connectable=1;" vertex="1" parent="1">
          <mxGeometry x="159" y="419" width="40" height="20" as="geometry" />
        </mxCell>
        <mxCell id="iKyUlA0jwbk502aVOzwF-36" value="4" style="text;html=1;strokeColor=none;fillColor=none;align=center;verticalAlign=middle;whiteSpace=wrap;rounded=0;movable=1;resizable=1;rotatable=1;deletable=1;editable=1;locked=0;connectable=1;" vertex="1" parent="1">
          <mxGeometry x="199" y="419" width="40" height="20" as="geometry" />
        </mxCell>
        <mxCell id="iKyUlA0jwbk502aVOzwF-37" value="5" style="text;html=1;strokeColor=none;fillColor=none;align=center;verticalAlign=middle;whiteSpace=wrap;rounded=0;movable=1;resizable=1;rotatable=1;deletable=1;editable=1;locked=0;connectable=1;" vertex="1" parent="1">
          <mxGeometry x="239" y="419" width="40" height="20" as="geometry" />
        </mxCell>
        <mxCell id="iKyUlA0jwbk502aVOzwF-38" value="L" style="text;html=1;strokeColor=none;fillColor=none;align=center;verticalAlign=middle;whiteSpace=wrap;rounded=0;movable=1;resizable=1;rotatable=1;deletable=1;editable=1;locked=0;connectable=1;" vertex="1" parent="1">
          <mxGeometry x="39" y="439" width="40" height="40" as="geometry" />
        </mxCell>
        <mxCell id="iKyUlA0jwbk502aVOzwF-39" value="1" style="whiteSpace=wrap;html=1;aspect=fixed;strokeWidth=0.5;fillColor=#dae8fc;strokeColor=#6c8ebf;movable=1;resizable=1;rotatable=1;deletable=1;editable=1;locked=0;connectable=1;" vertex="1" parent="1">
          <mxGeometry x="359" y="439" width="40" height="40" as="geometry" />
        </mxCell>
        <mxCell id="iKyUlA0jwbk502aVOzwF-40" value="2" style="whiteSpace=wrap;html=1;aspect=fixed;strokeWidth=0.5;fillColor=#f8cecc;strokeColor=#b85450;movable=1;resizable=1;rotatable=1;deletable=1;editable=1;locked=0;connectable=1;" vertex="1" parent="1">
          <mxGeometry x="399" y="439" width="40" height="40" as="geometry" />
        </mxCell>
        <mxCell id="iKyUlA0jwbk502aVOzwF-41" value="3" style="whiteSpace=wrap;html=1;aspect=fixed;strokeWidth=0.5;fillColor=#f8cecc;strokeColor=#b85450;movable=1;resizable=1;rotatable=1;deletable=1;editable=1;locked=0;connectable=1;" vertex="1" parent="1">
          <mxGeometry x="439" y="439" width="40" height="40" as="geometry" />
        </mxCell>
        <mxCell id="iKyUlA0jwbk502aVOzwF-42" value="6" style="whiteSpace=wrap;html=1;aspect=fixed;strokeWidth=0.5;fillColor=#f8cecc;strokeColor=#b85450;movable=1;resizable=1;rotatable=1;deletable=1;editable=1;locked=0;connectable=1;" vertex="1" parent="1">
          <mxGeometry x="479" y="439" width="40" height="40" as="geometry" />
        </mxCell>
        <mxCell id="iKyUlA0jwbk502aVOzwF-43" value="∞" style="whiteSpace=wrap;html=1;aspect=fixed;strokeWidth=0.5;fillColor=#f8cecc;strokeColor=#b85450;movable=1;resizable=1;rotatable=1;deletable=1;editable=1;locked=0;connectable=1;" vertex="1" parent="1">
          <mxGeometry x="519" y="439" width="40" height="40" as="geometry" />
        </mxCell>
        <mxCell id="iKyUlA0jwbk502aVOzwF-44" value="1" style="text;html=1;strokeColor=none;fillColor=none;align=center;verticalAlign=middle;whiteSpace=wrap;rounded=0;movable=1;resizable=1;rotatable=1;deletable=1;editable=1;locked=0;connectable=1;" vertex="1" parent="1">
          <mxGeometry x="359" y="419" width="40" height="20" as="geometry" />
        </mxCell>
        <mxCell id="iKyUlA0jwbk502aVOzwF-45" value="2" style="text;html=1;strokeColor=none;fillColor=none;align=center;verticalAlign=middle;whiteSpace=wrap;rounded=0;movable=1;resizable=1;rotatable=1;deletable=1;editable=1;locked=0;connectable=1;" vertex="1" parent="1">
          <mxGeometry x="399" y="419" width="40" height="20" as="geometry" />
        </mxCell>
        <mxCell id="iKyUlA0jwbk502aVOzwF-46" value="3" style="text;html=1;strokeColor=none;fillColor=none;align=center;verticalAlign=middle;whiteSpace=wrap;rounded=0;movable=1;resizable=1;rotatable=1;deletable=1;editable=1;locked=0;connectable=1;" vertex="1" parent="1">
          <mxGeometry x="439" y="419" width="40" height="20" as="geometry" />
        </mxCell>
        <mxCell id="iKyUlA0jwbk502aVOzwF-47" value="4" style="text;html=1;strokeColor=none;fillColor=none;align=center;verticalAlign=middle;whiteSpace=wrap;rounded=0;movable=1;resizable=1;rotatable=1;deletable=1;editable=1;locked=0;connectable=1;" vertex="1" parent="1">
          <mxGeometry x="479" y="419" width="40" height="20" as="geometry" />
        </mxCell>
        <mxCell id="iKyUlA0jwbk502aVOzwF-48" value="5" style="text;html=1;strokeColor=none;fillColor=none;align=center;verticalAlign=middle;whiteSpace=wrap;rounded=0;movable=1;resizable=1;rotatable=1;deletable=1;editable=1;locked=0;connectable=1;" vertex="1" parent="1">
          <mxGeometry x="519" y="419" width="40" height="20" as="geometry" />
        </mxCell>
        <mxCell id="iKyUlA0jwbk502aVOzwF-49" value="R" style="text;html=1;strokeColor=none;fillColor=none;align=center;verticalAlign=middle;whiteSpace=wrap;rounded=0;movable=1;resizable=1;rotatable=1;deletable=1;editable=1;locked=0;connectable=1;" vertex="1" parent="1">
          <mxGeometry x="319" y="439" width="40" height="40" as="geometry" />
        </mxCell>
        <mxCell id="iKyUlA0jwbk502aVOzwF-50" value="1" style="whiteSpace=wrap;html=1;aspect=fixed;strokeWidth=0.5;fillColor=#f8cecc;strokeColor=#b85450;movable=1;resizable=1;rotatable=1;deletable=1;editable=1;locked=0;connectable=1;" vertex="1" parent="1">
          <mxGeometry x="159" y="320" width="40" height="40" as="geometry" />
        </mxCell>
        <mxCell id="iKyUlA0jwbk502aVOzwF-51" value="4" style="whiteSpace=wrap;html=1;aspect=fixed;strokeWidth=0.5;fillColor=#dae8fc;strokeColor=#6c8ebf;movable=1;resizable=1;rotatable=1;deletable=1;editable=1;locked=0;connectable=1;" vertex="1" parent="1">
          <mxGeometry x="199" y="320" width="40" height="40" as="geometry" />
        </mxCell>
        <mxCell id="iKyUlA0jwbk502aVOzwF-52" value="5" style="whiteSpace=wrap;html=1;aspect=fixed;strokeWidth=0.5;fillColor=#dae8fc;strokeColor=#6c8ebf;movable=1;resizable=1;rotatable=1;deletable=1;editable=1;locked=0;connectable=1;" vertex="1" parent="1">
          <mxGeometry x="239" y="320" width="40" height="40" as="geometry" />
        </mxCell>
        <mxCell id="iKyUlA0jwbk502aVOzwF-53" value="7" style="whiteSpace=wrap;html=1;aspect=fixed;strokeWidth=0.5;fillColor=#dae8fc;strokeColor=#6c8ebf;movable=1;resizable=1;rotatable=1;deletable=1;editable=1;locked=0;connectable=1;" vertex="1" parent="1">
          <mxGeometry x="279" y="320" width="40" height="40" as="geometry" />
        </mxCell>
        <mxCell id="iKyUlA0jwbk502aVOzwF-54" value="9" style="text;html=1;strokeColor=none;fillColor=none;align=center;verticalAlign=middle;whiteSpace=wrap;rounded=0;movable=1;resizable=1;rotatable=1;deletable=1;editable=1;locked=0;connectable=1;" vertex="1" parent="1">
          <mxGeometry x="160" y="300" width="40" height="20" as="geometry" />
        </mxCell>
        <mxCell id="iKyUlA0jwbk502aVOzwF-55" value="10" style="text;html=1;strokeColor=none;fillColor=none;align=center;verticalAlign=middle;whiteSpace=wrap;rounded=0;movable=1;resizable=1;rotatable=1;deletable=1;editable=1;locked=0;connectable=1;" vertex="1" parent="1">
          <mxGeometry x="200" y="300" width="40" height="20" as="geometry" />
        </mxCell>
        <mxCell id="iKyUlA0jwbk502aVOzwF-56" value="11" style="text;html=1;strokeColor=none;fillColor=none;align=center;verticalAlign=middle;whiteSpace=wrap;rounded=0;movable=1;resizable=1;rotatable=1;deletable=1;editable=1;locked=0;connectable=1;" vertex="1" parent="1">
          <mxGeometry x="240" y="300" width="40" height="20" as="geometry" />
        </mxCell>
        <mxCell id="iKyUlA0jwbk502aVOzwF-57" value="12" style="text;html=1;strokeColor=none;fillColor=none;align=center;verticalAlign=middle;whiteSpace=wrap;rounded=0;movable=1;resizable=1;rotatable=1;deletable=1;editable=1;locked=0;connectable=1;" vertex="1" parent="1">
          <mxGeometry x="280" y="300" width="40" height="20" as="geometry" />
        </mxCell>
        <mxCell id="iKyUlA0jwbk502aVOzwF-58" value="A" style="text;html=1;strokeColor=none;fillColor=none;align=center;verticalAlign=middle;whiteSpace=wrap;rounded=0;movable=1;resizable=1;rotatable=1;deletable=1;editable=1;locked=0;connectable=1;" vertex="1" parent="1">
          <mxGeometry x="79" y="320" width="40" height="40" as="geometry" />
        </mxCell>
        <mxCell id="iKyUlA0jwbk502aVOzwF-59" value="1" style="whiteSpace=wrap;html=1;aspect=fixed;strokeWidth=0.5;fillColor=#dae8fc;strokeColor=#6c8ebf;movable=1;resizable=1;rotatable=1;deletable=1;editable=1;locked=0;connectable=1;" vertex="1" parent="1">
          <mxGeometry x="319" y="320" width="40" height="40" as="geometry" />
        </mxCell>
        <mxCell id="iKyUlA0jwbk502aVOzwF-60" value="2" style="whiteSpace=wrap;html=1;aspect=fixed;strokeWidth=0.5;fillColor=#dae8fc;strokeColor=#6c8ebf;movable=1;resizable=1;rotatable=1;deletable=1;editable=1;locked=0;connectable=1;" vertex="1" parent="1">
          <mxGeometry x="359" y="320" width="40" height="40" as="geometry" />
        </mxCell>
        <mxCell id="iKyUlA0jwbk502aVOzwF-61" value="3" style="whiteSpace=wrap;html=1;aspect=fixed;strokeWidth=0.5;fillColor=#dae8fc;strokeColor=#6c8ebf;movable=1;resizable=1;rotatable=1;deletable=1;editable=1;locked=0;connectable=1;" vertex="1" parent="1">
          <mxGeometry x="399" y="320" width="40" height="40" as="geometry" />
        </mxCell>
        <mxCell id="iKyUlA0jwbk502aVOzwF-62" value="6" style="whiteSpace=wrap;html=1;aspect=fixed;strokeWidth=0.5;fillColor=#dae8fc;strokeColor=#6c8ebf;movable=1;resizable=1;rotatable=1;deletable=1;editable=1;locked=0;connectable=1;" vertex="1" parent="1">
          <mxGeometry x="439" y="320" width="40" height="40" as="geometry" />
        </mxCell>
        <mxCell id="iKyUlA0jwbk502aVOzwF-63" value="…" style="whiteSpace=wrap;html=1;aspect=fixed;strokeWidth=0.5;fillColor=#dae8fc;strokeColor=#6c8ebf;movable=1;resizable=1;rotatable=1;deletable=1;editable=1;locked=0;connectable=1;" vertex="1" parent="1">
          <mxGeometry x="479" y="320" width="40" height="40" as="geometry" />
        </mxCell>
        <mxCell id="iKyUlA0jwbk502aVOzwF-64" value="13" style="text;html=1;strokeColor=none;fillColor=none;align=center;verticalAlign=middle;whiteSpace=wrap;rounded=0;movable=1;resizable=1;rotatable=1;deletable=1;editable=1;locked=0;connectable=1;" vertex="1" parent="1">
          <mxGeometry x="320" y="300" width="40" height="20" as="geometry" />
        </mxCell>
        <mxCell id="iKyUlA0jwbk502aVOzwF-65" value="14" style="text;html=1;strokeColor=none;fillColor=none;align=center;verticalAlign=middle;whiteSpace=wrap;rounded=0;movable=1;resizable=1;rotatable=1;deletable=1;editable=1;locked=0;connectable=1;" vertex="1" parent="1">
          <mxGeometry x="360" y="300" width="40" height="20" as="geometry" />
        </mxCell>
        <mxCell id="iKyUlA0jwbk502aVOzwF-66" value="15" style="text;html=1;strokeColor=none;fillColor=none;align=center;verticalAlign=middle;whiteSpace=wrap;rounded=0;movable=1;resizable=1;rotatable=1;deletable=1;editable=1;locked=0;connectable=1;" vertex="1" parent="1">
          <mxGeometry x="400" y="300" width="40" height="20" as="geometry" />
        </mxCell>
        <mxCell id="iKyUlA0jwbk502aVOzwF-67" value="16" style="text;html=1;strokeColor=none;fillColor=none;align=center;verticalAlign=middle;whiteSpace=wrap;rounded=0;movable=1;resizable=1;rotatable=1;deletable=1;editable=1;locked=0;connectable=1;" vertex="1" parent="1">
          <mxGeometry x="440" y="300" width="40" height="20" as="geometry" />
        </mxCell>
        <mxCell id="iKyUlA0jwbk502aVOzwF-68" value="17" style="text;html=1;strokeColor=none;fillColor=none;align=center;verticalAlign=middle;whiteSpace=wrap;rounded=0;movable=1;resizable=1;rotatable=1;deletable=1;editable=1;locked=0;connectable=1;" vertex="1" parent="1">
          <mxGeometry x="480" y="300" width="40" height="20" as="geometry" />
        </mxCell>
        <mxCell id="iKyUlA0jwbk502aVOzwF-69" value="…" style="whiteSpace=wrap;html=1;aspect=fixed;strokeWidth=0.5;fillColor=#dae8fc;strokeColor=#6c8ebf;movable=1;resizable=1;rotatable=1;deletable=1;editable=1;locked=0;connectable=1;" vertex="1" parent="1">
          <mxGeometry x="119" y="320" width="40" height="40" as="geometry" />
        </mxCell>
        <mxCell id="iKyUlA0jwbk502aVOzwF-70" value="8" style="text;html=1;strokeColor=none;fillColor=none;align=center;verticalAlign=middle;whiteSpace=wrap;rounded=0;movable=1;resizable=1;rotatable=1;deletable=1;editable=1;locked=0;connectable=1;" vertex="1" parent="1">
          <mxGeometry x="120" y="300" width="40" height="20" as="geometry" />
        </mxCell>
        <mxCell id="iKyUlA0jwbk502aVOzwF-71" value="i" style="text;html=1;strokeColor=none;fillColor=none;align=center;verticalAlign=middle;whiteSpace=wrap;rounded=0;movable=1;resizable=1;rotatable=1;deletable=1;editable=1;locked=0;connectable=1;" vertex="1" parent="1">
          <mxGeometry x="79" y="479" width="40" height="20" as="geometry" />
        </mxCell>
        <mxCell id="iKyUlA0jwbk502aVOzwF-72" value="j" style="text;html=1;strokeColor=none;fillColor=none;align=center;verticalAlign=middle;whiteSpace=wrap;rounded=0;movable=1;resizable=1;rotatable=1;deletable=1;editable=1;locked=0;connectable=1;" vertex="1" parent="1">
          <mxGeometry x="359" y="479" width="40" height="20" as="geometry" />
        </mxCell>
        <mxCell id="iKyUlA0jwbk502aVOzwF-73" value="(b)" style="text;html=1;strokeColor=none;fillColor=none;align=center;verticalAlign=middle;whiteSpace=wrap;rounded=0;movable=1;resizable=1;rotatable=1;deletable=1;editable=1;locked=0;connectable=1;" vertex="1" parent="1">
          <mxGeometry x="299" y="499" width="40" height="20" as="geometry" />
        </mxCell>
        <mxCell id="iKyUlA0jwbk502aVOzwF-166" value="2" style="whiteSpace=wrap;html=1;aspect=fixed;strokeWidth=0.5;fillColor=#dae8fc;strokeColor=#6c8ebf;movable=1;resizable=1;rotatable=1;deletable=1;editable=1;locked=0;connectable=1;" vertex="1" parent="1">
          <mxGeometry x="79" y="720" width="40" height="40" as="geometry" />
        </mxCell>
        <mxCell id="iKyUlA0jwbk502aVOzwF-167" value="4" style="whiteSpace=wrap;html=1;aspect=fixed;strokeWidth=0.5;fillColor=#f8cecc;strokeColor=#b85450;movable=1;resizable=1;rotatable=1;deletable=1;editable=1;locked=0;connectable=1;" vertex="1" parent="1">
          <mxGeometry x="119" y="720" width="40" height="40" as="geometry" />
        </mxCell>
        <mxCell id="iKyUlA0jwbk502aVOzwF-168" value="5" style="whiteSpace=wrap;html=1;aspect=fixed;strokeWidth=0.5;fillColor=#f8cecc;strokeColor=#b85450;movable=1;resizable=1;rotatable=1;deletable=1;editable=1;locked=0;connectable=1;" vertex="1" parent="1">
          <mxGeometry x="159" y="720" width="40" height="40" as="geometry" />
        </mxCell>
        <mxCell id="iKyUlA0jwbk502aVOzwF-169" value="7" style="whiteSpace=wrap;html=1;aspect=fixed;strokeWidth=0.5;fillColor=#f8cecc;strokeColor=#b85450;movable=1;resizable=1;rotatable=1;deletable=1;editable=1;locked=0;connectable=1;" vertex="1" parent="1">
          <mxGeometry x="199" y="720" width="40" height="40" as="geometry" />
        </mxCell>
        <mxCell id="iKyUlA0jwbk502aVOzwF-170" value="∞" style="whiteSpace=wrap;html=1;aspect=fixed;strokeWidth=0.5;fillColor=#f8cecc;strokeColor=#b85450;movable=1;resizable=1;rotatable=1;deletable=1;editable=1;locked=0;connectable=1;" vertex="1" parent="1">
          <mxGeometry x="239" y="720" width="40" height="40" as="geometry" />
        </mxCell>
        <mxCell id="iKyUlA0jwbk502aVOzwF-171" value="1" style="text;html=1;strokeColor=none;fillColor=none;align=center;verticalAlign=middle;whiteSpace=wrap;rounded=0;movable=1;resizable=1;rotatable=1;deletable=1;editable=1;locked=0;connectable=1;" vertex="1" parent="1">
          <mxGeometry x="79" y="700" width="40" height="20" as="geometry" />
        </mxCell>
        <mxCell id="iKyUlA0jwbk502aVOzwF-172" value="2" style="text;html=1;strokeColor=none;fillColor=none;align=center;verticalAlign=middle;whiteSpace=wrap;rounded=0;movable=1;resizable=1;rotatable=1;deletable=1;editable=1;locked=0;connectable=1;" vertex="1" parent="1">
          <mxGeometry x="119" y="700" width="40" height="20" as="geometry" />
        </mxCell>
        <mxCell id="iKyUlA0jwbk502aVOzwF-173" value="3" style="text;html=1;strokeColor=none;fillColor=none;align=center;verticalAlign=middle;whiteSpace=wrap;rounded=0;movable=1;resizable=1;rotatable=1;deletable=1;editable=1;locked=0;connectable=1;" vertex="1" parent="1">
          <mxGeometry x="159" y="700" width="40" height="20" as="geometry" />
        </mxCell>
        <mxCell id="iKyUlA0jwbk502aVOzwF-174" value="4" style="text;html=1;strokeColor=none;fillColor=none;align=center;verticalAlign=middle;whiteSpace=wrap;rounded=0;movable=1;resizable=1;rotatable=1;deletable=1;editable=1;locked=0;connectable=1;" vertex="1" parent="1">
          <mxGeometry x="199" y="700" width="40" height="20" as="geometry" />
        </mxCell>
        <mxCell id="iKyUlA0jwbk502aVOzwF-175" value="5" style="text;html=1;strokeColor=none;fillColor=none;align=center;verticalAlign=middle;whiteSpace=wrap;rounded=0;movable=1;resizable=1;rotatable=1;deletable=1;editable=1;locked=0;connectable=1;" vertex="1" parent="1">
          <mxGeometry x="239" y="700" width="40" height="20" as="geometry" />
        </mxCell>
        <mxCell id="iKyUlA0jwbk502aVOzwF-176" value="L" style="text;html=1;strokeColor=none;fillColor=none;align=center;verticalAlign=middle;whiteSpace=wrap;rounded=0;movable=1;resizable=1;rotatable=1;deletable=1;editable=1;locked=0;connectable=1;" vertex="1" parent="1">
          <mxGeometry x="39" y="720" width="40" height="40" as="geometry" />
        </mxCell>
        <mxCell id="iKyUlA0jwbk502aVOzwF-177" value="1" style="whiteSpace=wrap;html=1;aspect=fixed;strokeWidth=0.5;fillColor=#dae8fc;strokeColor=#6c8ebf;movable=1;resizable=1;rotatable=1;deletable=1;editable=1;locked=0;connectable=1;" vertex="1" parent="1">
          <mxGeometry x="359" y="720" width="40" height="40" as="geometry" />
        </mxCell>
        <mxCell id="iKyUlA0jwbk502aVOzwF-178" value="2" style="whiteSpace=wrap;html=1;aspect=fixed;strokeWidth=0.5;fillColor=#f8cecc;strokeColor=#b85450;movable=1;resizable=1;rotatable=1;deletable=1;editable=1;locked=0;connectable=1;" vertex="1" parent="1">
          <mxGeometry x="399" y="720" width="40" height="40" as="geometry" />
        </mxCell>
        <mxCell id="iKyUlA0jwbk502aVOzwF-179" value="3" style="whiteSpace=wrap;html=1;aspect=fixed;strokeWidth=0.5;fillColor=#f8cecc;strokeColor=#b85450;movable=1;resizable=1;rotatable=1;deletable=1;editable=1;locked=0;connectable=1;" vertex="1" parent="1">
          <mxGeometry x="439" y="720" width="40" height="40" as="geometry" />
        </mxCell>
        <mxCell id="iKyUlA0jwbk502aVOzwF-180" value="6" style="whiteSpace=wrap;html=1;aspect=fixed;strokeWidth=0.5;fillColor=#f8cecc;strokeColor=#b85450;movable=1;resizable=1;rotatable=1;deletable=1;editable=1;locked=0;connectable=1;" vertex="1" parent="1">
          <mxGeometry x="479" y="720" width="40" height="40" as="geometry" />
        </mxCell>
        <mxCell id="iKyUlA0jwbk502aVOzwF-181" value="∞" style="whiteSpace=wrap;html=1;aspect=fixed;strokeWidth=0.5;fillColor=#f8cecc;strokeColor=#b85450;movable=1;resizable=1;rotatable=1;deletable=1;editable=1;locked=0;connectable=1;" vertex="1" parent="1">
          <mxGeometry x="519" y="720" width="40" height="40" as="geometry" />
        </mxCell>
        <mxCell id="iKyUlA0jwbk502aVOzwF-182" value="1" style="text;html=1;strokeColor=none;fillColor=none;align=center;verticalAlign=middle;whiteSpace=wrap;rounded=0;movable=1;resizable=1;rotatable=1;deletable=1;editable=1;locked=0;connectable=1;" vertex="1" parent="1">
          <mxGeometry x="359" y="700" width="40" height="20" as="geometry" />
        </mxCell>
        <mxCell id="iKyUlA0jwbk502aVOzwF-183" value="2" style="text;html=1;strokeColor=none;fillColor=none;align=center;verticalAlign=middle;whiteSpace=wrap;rounded=0;movable=1;resizable=1;rotatable=1;deletable=1;editable=1;locked=0;connectable=1;" vertex="1" parent="1">
          <mxGeometry x="399" y="700" width="40" height="20" as="geometry" />
        </mxCell>
        <mxCell id="iKyUlA0jwbk502aVOzwF-184" value="3" style="text;html=1;strokeColor=none;fillColor=none;align=center;verticalAlign=middle;whiteSpace=wrap;rounded=0;movable=1;resizable=1;rotatable=1;deletable=1;editable=1;locked=0;connectable=1;" vertex="1" parent="1">
          <mxGeometry x="439" y="700" width="40" height="20" as="geometry" />
        </mxCell>
        <mxCell id="iKyUlA0jwbk502aVOzwF-185" value="4" style="text;html=1;strokeColor=none;fillColor=none;align=center;verticalAlign=middle;whiteSpace=wrap;rounded=0;movable=1;resizable=1;rotatable=1;deletable=1;editable=1;locked=0;connectable=1;" vertex="1" parent="1">
          <mxGeometry x="479" y="700" width="40" height="20" as="geometry" />
        </mxCell>
        <mxCell id="iKyUlA0jwbk502aVOzwF-186" value="5" style="text;html=1;strokeColor=none;fillColor=none;align=center;verticalAlign=middle;whiteSpace=wrap;rounded=0;movable=1;resizable=1;rotatable=1;deletable=1;editable=1;locked=0;connectable=1;" vertex="1" parent="1">
          <mxGeometry x="519" y="700" width="40" height="20" as="geometry" />
        </mxCell>
        <mxCell id="iKyUlA0jwbk502aVOzwF-187" value="R" style="text;html=1;strokeColor=none;fillColor=none;align=center;verticalAlign=middle;whiteSpace=wrap;rounded=0;movable=1;resizable=1;rotatable=1;deletable=1;editable=1;locked=0;connectable=1;" vertex="1" parent="1">
          <mxGeometry x="319" y="720" width="40" height="40" as="geometry" />
        </mxCell>
        <mxCell id="iKyUlA0jwbk502aVOzwF-188" value="1" style="whiteSpace=wrap;html=1;aspect=fixed;strokeWidth=0.5;fillColor=#f8cecc;strokeColor=#b85450;movable=1;resizable=1;rotatable=1;deletable=1;editable=1;locked=0;connectable=1;" vertex="1" parent="1">
          <mxGeometry x="159" y="619" width="40" height="40" as="geometry" />
        </mxCell>
        <mxCell id="iKyUlA0jwbk502aVOzwF-189" value="2" style="whiteSpace=wrap;html=1;aspect=fixed;strokeWidth=0.5;fillColor=#f8cecc;strokeColor=#b85450;movable=1;resizable=1;rotatable=1;deletable=1;editable=1;locked=0;connectable=1;" vertex="1" parent="1">
          <mxGeometry x="199" y="619" width="40" height="40" as="geometry" />
        </mxCell>
        <mxCell id="iKyUlA0jwbk502aVOzwF-190" value="5" style="whiteSpace=wrap;html=1;aspect=fixed;strokeWidth=0.5;fillColor=#dae8fc;strokeColor=#6c8ebf;movable=1;resizable=1;rotatable=1;deletable=1;editable=1;locked=0;connectable=1;" vertex="1" parent="1">
          <mxGeometry x="239" y="619" width="40" height="40" as="geometry" />
        </mxCell>
        <mxCell id="iKyUlA0jwbk502aVOzwF-191" value="7" style="whiteSpace=wrap;html=1;aspect=fixed;strokeWidth=0.5;fillColor=#dae8fc;strokeColor=#6c8ebf;movable=1;resizable=1;rotatable=1;deletable=1;editable=1;locked=0;connectable=1;" vertex="1" parent="1">
          <mxGeometry x="279" y="619" width="40" height="40" as="geometry" />
        </mxCell>
        <mxCell id="iKyUlA0jwbk502aVOzwF-192" value="9" style="text;html=1;strokeColor=none;fillColor=none;align=center;verticalAlign=middle;whiteSpace=wrap;rounded=0;movable=1;resizable=1;rotatable=1;deletable=1;editable=1;locked=0;connectable=1;" vertex="1" parent="1">
          <mxGeometry x="160" y="599" width="40" height="20" as="geometry" />
        </mxCell>
        <mxCell id="iKyUlA0jwbk502aVOzwF-193" value="10" style="text;html=1;strokeColor=none;fillColor=none;align=center;verticalAlign=middle;whiteSpace=wrap;rounded=0;movable=1;resizable=1;rotatable=1;deletable=1;editable=1;locked=0;connectable=1;" vertex="1" parent="1">
          <mxGeometry x="200" y="599" width="40" height="20" as="geometry" />
        </mxCell>
        <mxCell id="iKyUlA0jwbk502aVOzwF-194" value="11" style="text;html=1;strokeColor=none;fillColor=none;align=center;verticalAlign=middle;whiteSpace=wrap;rounded=0;movable=1;resizable=1;rotatable=1;deletable=1;editable=1;locked=0;connectable=1;" vertex="1" parent="1">
          <mxGeometry x="240" y="599" width="40" height="20" as="geometry" />
        </mxCell>
        <mxCell id="iKyUlA0jwbk502aVOzwF-195" value="12" style="text;html=1;strokeColor=none;fillColor=none;align=center;verticalAlign=middle;whiteSpace=wrap;rounded=0;movable=1;resizable=1;rotatable=1;deletable=1;editable=1;locked=0;connectable=1;" vertex="1" parent="1">
          <mxGeometry x="280" y="599" width="40" height="20" as="geometry" />
        </mxCell>
        <mxCell id="iKyUlA0jwbk502aVOzwF-196" value="A" style="text;html=1;strokeColor=none;fillColor=none;align=center;verticalAlign=middle;whiteSpace=wrap;rounded=0;movable=1;resizable=1;rotatable=1;deletable=1;editable=1;locked=0;connectable=1;" vertex="1" parent="1">
          <mxGeometry x="79" y="619" width="40" height="40" as="geometry" />
        </mxCell>
        <mxCell id="iKyUlA0jwbk502aVOzwF-197" value="1" style="whiteSpace=wrap;html=1;aspect=fixed;strokeWidth=0.5;fillColor=#dae8fc;strokeColor=#6c8ebf;movable=1;resizable=1;rotatable=1;deletable=1;editable=1;locked=0;connectable=1;" vertex="1" parent="1">
          <mxGeometry x="319" y="619" width="40" height="40" as="geometry" />
        </mxCell>
        <mxCell id="iKyUlA0jwbk502aVOzwF-198" value="2" style="whiteSpace=wrap;html=1;aspect=fixed;strokeWidth=0.5;fillColor=#dae8fc;strokeColor=#6c8ebf;movable=1;resizable=1;rotatable=1;deletable=1;editable=1;locked=0;connectable=1;" vertex="1" parent="1">
          <mxGeometry x="359" y="619" width="40" height="40" as="geometry" />
        </mxCell>
        <mxCell id="iKyUlA0jwbk502aVOzwF-199" value="3" style="whiteSpace=wrap;html=1;aspect=fixed;strokeWidth=0.5;fillColor=#dae8fc;strokeColor=#6c8ebf;movable=1;resizable=1;rotatable=1;deletable=1;editable=1;locked=0;connectable=1;" vertex="1" parent="1">
          <mxGeometry x="399" y="619" width="40" height="40" as="geometry" />
        </mxCell>
        <mxCell id="iKyUlA0jwbk502aVOzwF-200" value="6" style="whiteSpace=wrap;html=1;aspect=fixed;strokeWidth=0.5;fillColor=#dae8fc;strokeColor=#6c8ebf;movable=1;resizable=1;rotatable=1;deletable=1;editable=1;locked=0;connectable=1;" vertex="1" parent="1">
          <mxGeometry x="439" y="619" width="40" height="40" as="geometry" />
        </mxCell>
        <mxCell id="iKyUlA0jwbk502aVOzwF-201" value="…" style="whiteSpace=wrap;html=1;aspect=fixed;strokeWidth=0.5;fillColor=#dae8fc;strokeColor=#6c8ebf;movable=1;resizable=1;rotatable=1;deletable=1;editable=1;locked=0;connectable=1;" vertex="1" parent="1">
          <mxGeometry x="479" y="619" width="40" height="40" as="geometry" />
        </mxCell>
        <mxCell id="iKyUlA0jwbk502aVOzwF-202" value="13" style="text;html=1;strokeColor=none;fillColor=none;align=center;verticalAlign=middle;whiteSpace=wrap;rounded=0;movable=1;resizable=1;rotatable=1;deletable=1;editable=1;locked=0;connectable=1;" vertex="1" parent="1">
          <mxGeometry x="320" y="599" width="40" height="20" as="geometry" />
        </mxCell>
        <mxCell id="iKyUlA0jwbk502aVOzwF-203" value="14" style="text;html=1;strokeColor=none;fillColor=none;align=center;verticalAlign=middle;whiteSpace=wrap;rounded=0;movable=1;resizable=1;rotatable=1;deletable=1;editable=1;locked=0;connectable=1;" vertex="1" parent="1">
          <mxGeometry x="360" y="599" width="40" height="20" as="geometry" />
        </mxCell>
        <mxCell id="iKyUlA0jwbk502aVOzwF-204" value="15" style="text;html=1;strokeColor=none;fillColor=none;align=center;verticalAlign=middle;whiteSpace=wrap;rounded=0;movable=1;resizable=1;rotatable=1;deletable=1;editable=1;locked=0;connectable=1;" vertex="1" parent="1">
          <mxGeometry x="400" y="599" width="40" height="20" as="geometry" />
        </mxCell>
        <mxCell id="iKyUlA0jwbk502aVOzwF-205" value="16" style="text;html=1;strokeColor=none;fillColor=none;align=center;verticalAlign=middle;whiteSpace=wrap;rounded=0;movable=1;resizable=1;rotatable=1;deletable=1;editable=1;locked=0;connectable=1;" vertex="1" parent="1">
          <mxGeometry x="440" y="599" width="40" height="20" as="geometry" />
        </mxCell>
        <mxCell id="iKyUlA0jwbk502aVOzwF-206" value="17" style="text;html=1;strokeColor=none;fillColor=none;align=center;verticalAlign=middle;whiteSpace=wrap;rounded=0;movable=1;resizable=1;rotatable=1;deletable=1;editable=1;locked=0;connectable=1;" vertex="1" parent="1">
          <mxGeometry x="480" y="599" width="40" height="20" as="geometry" />
        </mxCell>
        <mxCell id="iKyUlA0jwbk502aVOzwF-207" value="…" style="whiteSpace=wrap;html=1;aspect=fixed;strokeWidth=0.5;fillColor=#dae8fc;strokeColor=#6c8ebf;movable=1;resizable=1;rotatable=1;deletable=1;editable=1;locked=0;connectable=1;" vertex="1" parent="1">
          <mxGeometry x="119" y="619" width="40" height="40" as="geometry" />
        </mxCell>
        <mxCell id="iKyUlA0jwbk502aVOzwF-208" value="8" style="text;html=1;strokeColor=none;fillColor=none;align=center;verticalAlign=middle;whiteSpace=wrap;rounded=0;movable=1;resizable=1;rotatable=1;deletable=1;editable=1;locked=0;connectable=1;" vertex="1" parent="1">
          <mxGeometry x="120" y="599" width="40" height="20" as="geometry" />
        </mxCell>
        <mxCell id="iKyUlA0jwbk502aVOzwF-209" value="i" style="text;html=1;strokeColor=none;fillColor=none;align=center;verticalAlign=middle;whiteSpace=wrap;rounded=0;movable=1;resizable=1;rotatable=1;deletable=1;editable=1;locked=0;connectable=1;" vertex="1" parent="1">
          <mxGeometry x="79" y="760" width="40" height="20" as="geometry" />
        </mxCell>
        <mxCell id="iKyUlA0jwbk502aVOzwF-210" value="j" style="text;html=1;strokeColor=none;fillColor=none;align=center;verticalAlign=middle;whiteSpace=wrap;rounded=0;movable=1;resizable=1;rotatable=1;deletable=1;editable=1;locked=0;connectable=1;" vertex="1" parent="1">
          <mxGeometry x="359" y="760" width="40" height="20" as="geometry" />
        </mxCell>
        <mxCell id="iKyUlA0jwbk502aVOzwF-211" value="(c)" style="text;html=1;strokeColor=none;fillColor=none;align=center;verticalAlign=middle;whiteSpace=wrap;rounded=0;movable=1;resizable=1;rotatable=1;deletable=1;editable=1;locked=0;connectable=1;" vertex="1" parent="1">
          <mxGeometry x="299" y="780" width="40" height="20" as="geometry" />
        </mxCell>
        <mxCell id="iKyUlA0jwbk502aVOzwF-212" value="2" style="whiteSpace=wrap;html=1;aspect=fixed;strokeWidth=0.5;fillColor=#dae8fc;strokeColor=#6c8ebf;movable=1;resizable=1;rotatable=1;deletable=1;editable=1;locked=0;connectable=1;" vertex="1" parent="1">
          <mxGeometry x="79" y="1000" width="40" height="40" as="geometry" />
        </mxCell>
        <mxCell id="iKyUlA0jwbk502aVOzwF-213" value="4" style="whiteSpace=wrap;html=1;aspect=fixed;strokeWidth=0.5;fillColor=#f8cecc;strokeColor=#b85450;movable=1;resizable=1;rotatable=1;deletable=1;editable=1;locked=0;connectable=1;" vertex="1" parent="1">
          <mxGeometry x="119" y="1000" width="40" height="40" as="geometry" />
        </mxCell>
        <mxCell id="iKyUlA0jwbk502aVOzwF-214" value="5" style="whiteSpace=wrap;html=1;aspect=fixed;strokeWidth=0.5;fillColor=#f8cecc;strokeColor=#b85450;movable=1;resizable=1;rotatable=1;deletable=1;editable=1;locked=0;connectable=1;" vertex="1" parent="1">
          <mxGeometry x="159" y="1000" width="40" height="40" as="geometry" />
        </mxCell>
        <mxCell id="iKyUlA0jwbk502aVOzwF-215" value="7" style="whiteSpace=wrap;html=1;aspect=fixed;strokeWidth=0.5;fillColor=#f8cecc;strokeColor=#b85450;movable=1;resizable=1;rotatable=1;deletable=1;editable=1;locked=0;connectable=1;" vertex="1" parent="1">
          <mxGeometry x="199" y="1000" width="40" height="40" as="geometry" />
        </mxCell>
        <mxCell id="iKyUlA0jwbk502aVOzwF-216" value="∞" style="whiteSpace=wrap;html=1;aspect=fixed;strokeWidth=0.5;fillColor=#f8cecc;strokeColor=#b85450;movable=1;resizable=1;rotatable=1;deletable=1;editable=1;locked=0;connectable=1;" vertex="1" parent="1">
          <mxGeometry x="239" y="1000" width="40" height="40" as="geometry" />
        </mxCell>
        <mxCell id="iKyUlA0jwbk502aVOzwF-217" value="1" style="text;html=1;strokeColor=none;fillColor=none;align=center;verticalAlign=middle;whiteSpace=wrap;rounded=0;movable=1;resizable=1;rotatable=1;deletable=1;editable=1;locked=0;connectable=1;" vertex="1" parent="1">
          <mxGeometry x="79" y="980" width="40" height="20" as="geometry" />
        </mxCell>
        <mxCell id="iKyUlA0jwbk502aVOzwF-218" value="2" style="text;html=1;strokeColor=none;fillColor=none;align=center;verticalAlign=middle;whiteSpace=wrap;rounded=0;movable=1;resizable=1;rotatable=1;deletable=1;editable=1;locked=0;connectable=1;" vertex="1" parent="1">
          <mxGeometry x="119" y="980" width="40" height="20" as="geometry" />
        </mxCell>
        <mxCell id="iKyUlA0jwbk502aVOzwF-219" value="3" style="text;html=1;strokeColor=none;fillColor=none;align=center;verticalAlign=middle;whiteSpace=wrap;rounded=0;movable=1;resizable=1;rotatable=1;deletable=1;editable=1;locked=0;connectable=1;" vertex="1" parent="1">
          <mxGeometry x="159" y="980" width="40" height="20" as="geometry" />
        </mxCell>
        <mxCell id="iKyUlA0jwbk502aVOzwF-220" value="4" style="text;html=1;strokeColor=none;fillColor=none;align=center;verticalAlign=middle;whiteSpace=wrap;rounded=0;movable=1;resizable=1;rotatable=1;deletable=1;editable=1;locked=0;connectable=1;" vertex="1" parent="1">
          <mxGeometry x="199" y="980" width="40" height="20" as="geometry" />
        </mxCell>
        <mxCell id="iKyUlA0jwbk502aVOzwF-221" value="5" style="text;html=1;strokeColor=none;fillColor=none;align=center;verticalAlign=middle;whiteSpace=wrap;rounded=0;movable=1;resizable=1;rotatable=1;deletable=1;editable=1;locked=0;connectable=1;" vertex="1" parent="1">
          <mxGeometry x="239" y="980" width="40" height="20" as="geometry" />
        </mxCell>
        <mxCell id="iKyUlA0jwbk502aVOzwF-222" value="L" style="text;html=1;strokeColor=none;fillColor=none;align=center;verticalAlign=middle;whiteSpace=wrap;rounded=0;movable=1;resizable=1;rotatable=1;deletable=1;editable=1;locked=0;connectable=1;" vertex="1" parent="1">
          <mxGeometry x="39" y="1000" width="40" height="40" as="geometry" />
        </mxCell>
        <mxCell id="iKyUlA0jwbk502aVOzwF-223" value="1" style="whiteSpace=wrap;html=1;aspect=fixed;strokeWidth=0.5;fillColor=#dae8fc;strokeColor=#6c8ebf;movable=1;resizable=1;rotatable=1;deletable=1;editable=1;locked=0;connectable=1;" vertex="1" parent="1">
          <mxGeometry x="359" y="1000" width="40" height="40" as="geometry" />
        </mxCell>
        <mxCell id="iKyUlA0jwbk502aVOzwF-224" value="2" style="whiteSpace=wrap;html=1;aspect=fixed;strokeWidth=0.5;fillColor=#dae8fc;strokeColor=#6c8ebf;movable=1;resizable=1;rotatable=1;deletable=1;editable=1;locked=0;connectable=1;" vertex="1" parent="1">
          <mxGeometry x="399" y="1000" width="40" height="40" as="geometry" />
        </mxCell>
        <mxCell id="iKyUlA0jwbk502aVOzwF-225" value="3" style="whiteSpace=wrap;html=1;aspect=fixed;strokeWidth=0.5;fillColor=#f8cecc;strokeColor=#b85450;movable=1;resizable=1;rotatable=1;deletable=1;editable=1;locked=0;connectable=1;" vertex="1" parent="1">
          <mxGeometry x="439" y="1000" width="40" height="40" as="geometry" />
        </mxCell>
        <mxCell id="iKyUlA0jwbk502aVOzwF-226" value="6" style="whiteSpace=wrap;html=1;aspect=fixed;strokeWidth=0.5;fillColor=#f8cecc;strokeColor=#b85450;movable=1;resizable=1;rotatable=1;deletable=1;editable=1;locked=0;connectable=1;" vertex="1" parent="1">
          <mxGeometry x="479" y="1000" width="40" height="40" as="geometry" />
        </mxCell>
        <mxCell id="iKyUlA0jwbk502aVOzwF-227" value="∞" style="whiteSpace=wrap;html=1;aspect=fixed;strokeWidth=0.5;fillColor=#f8cecc;strokeColor=#b85450;movable=1;resizable=1;rotatable=1;deletable=1;editable=1;locked=0;connectable=1;" vertex="1" parent="1">
          <mxGeometry x="519" y="1000" width="40" height="40" as="geometry" />
        </mxCell>
        <mxCell id="iKyUlA0jwbk502aVOzwF-228" value="1" style="text;html=1;strokeColor=none;fillColor=none;align=center;verticalAlign=middle;whiteSpace=wrap;rounded=0;movable=1;resizable=1;rotatable=1;deletable=1;editable=1;locked=0;connectable=1;" vertex="1" parent="1">
          <mxGeometry x="359" y="980" width="40" height="20" as="geometry" />
        </mxCell>
        <mxCell id="iKyUlA0jwbk502aVOzwF-229" value="2" style="text;html=1;strokeColor=none;fillColor=none;align=center;verticalAlign=middle;whiteSpace=wrap;rounded=0;movable=1;resizable=1;rotatable=1;deletable=1;editable=1;locked=0;connectable=1;" vertex="1" parent="1">
          <mxGeometry x="399" y="980" width="40" height="20" as="geometry" />
        </mxCell>
        <mxCell id="iKyUlA0jwbk502aVOzwF-230" value="3" style="text;html=1;strokeColor=none;fillColor=none;align=center;verticalAlign=middle;whiteSpace=wrap;rounded=0;movable=1;resizable=1;rotatable=1;deletable=1;editable=1;locked=0;connectable=1;" vertex="1" parent="1">
          <mxGeometry x="439" y="980" width="40" height="20" as="geometry" />
        </mxCell>
        <mxCell id="iKyUlA0jwbk502aVOzwF-231" value="4" style="text;html=1;strokeColor=none;fillColor=none;align=center;verticalAlign=middle;whiteSpace=wrap;rounded=0;movable=1;resizable=1;rotatable=1;deletable=1;editable=1;locked=0;connectable=1;" vertex="1" parent="1">
          <mxGeometry x="479" y="980" width="40" height="20" as="geometry" />
        </mxCell>
        <mxCell id="iKyUlA0jwbk502aVOzwF-232" value="5" style="text;html=1;strokeColor=none;fillColor=none;align=center;verticalAlign=middle;whiteSpace=wrap;rounded=0;movable=1;resizable=1;rotatable=1;deletable=1;editable=1;locked=0;connectable=1;" vertex="1" parent="1">
          <mxGeometry x="519" y="980" width="40" height="20" as="geometry" />
        </mxCell>
        <mxCell id="iKyUlA0jwbk502aVOzwF-233" value="R" style="text;html=1;strokeColor=none;fillColor=none;align=center;verticalAlign=middle;whiteSpace=wrap;rounded=0;movable=1;resizable=1;rotatable=1;deletable=1;editable=1;locked=0;connectable=1;" vertex="1" parent="1">
          <mxGeometry x="319" y="1000" width="40" height="40" as="geometry" />
        </mxCell>
        <mxCell id="iKyUlA0jwbk502aVOzwF-234" value="1" style="whiteSpace=wrap;html=1;aspect=fixed;strokeWidth=0.5;fillColor=#f8cecc;strokeColor=#b85450;movable=1;resizable=1;rotatable=1;deletable=1;editable=1;locked=0;connectable=1;" vertex="1" parent="1">
          <mxGeometry x="160" y="901" width="40" height="40" as="geometry" />
        </mxCell>
        <mxCell id="iKyUlA0jwbk502aVOzwF-235" value="2" style="whiteSpace=wrap;html=1;aspect=fixed;strokeWidth=0.5;fillColor=#f8cecc;strokeColor=#b85450;movable=1;resizable=1;rotatable=1;deletable=1;editable=1;locked=0;connectable=1;" vertex="1" parent="1">
          <mxGeometry x="200" y="901" width="40" height="40" as="geometry" />
        </mxCell>
        <mxCell id="iKyUlA0jwbk502aVOzwF-236" value="2" style="whiteSpace=wrap;html=1;aspect=fixed;strokeWidth=0.5;fillColor=#f8cecc;strokeColor=#b85450;movable=1;resizable=1;rotatable=1;deletable=1;editable=1;locked=0;connectable=1;" vertex="1" parent="1">
          <mxGeometry x="240" y="901" width="40" height="40" as="geometry" />
        </mxCell>
        <mxCell id="iKyUlA0jwbk502aVOzwF-237" value="7" style="whiteSpace=wrap;html=1;aspect=fixed;strokeWidth=0.5;fillColor=#dae8fc;strokeColor=#6c8ebf;movable=1;resizable=1;rotatable=1;deletable=1;editable=1;locked=0;connectable=1;" vertex="1" parent="1">
          <mxGeometry x="280" y="901" width="40" height="40" as="geometry" />
        </mxCell>
        <mxCell id="iKyUlA0jwbk502aVOzwF-238" value="9" style="text;html=1;strokeColor=none;fillColor=none;align=center;verticalAlign=middle;whiteSpace=wrap;rounded=0;movable=1;resizable=1;rotatable=1;deletable=1;editable=1;locked=0;connectable=1;" vertex="1" parent="1">
          <mxGeometry x="161" y="881" width="40" height="20" as="geometry" />
        </mxCell>
        <mxCell id="iKyUlA0jwbk502aVOzwF-239" value="10" style="text;html=1;strokeColor=none;fillColor=none;align=center;verticalAlign=middle;whiteSpace=wrap;rounded=0;movable=1;resizable=1;rotatable=1;deletable=1;editable=1;locked=0;connectable=1;" vertex="1" parent="1">
          <mxGeometry x="201" y="881" width="40" height="20" as="geometry" />
        </mxCell>
        <mxCell id="iKyUlA0jwbk502aVOzwF-240" value="11" style="text;html=1;strokeColor=none;fillColor=none;align=center;verticalAlign=middle;whiteSpace=wrap;rounded=0;movable=1;resizable=1;rotatable=1;deletable=1;editable=1;locked=0;connectable=1;" vertex="1" parent="1">
          <mxGeometry x="241" y="881" width="40" height="20" as="geometry" />
        </mxCell>
        <mxCell id="iKyUlA0jwbk502aVOzwF-241" value="12" style="text;html=1;strokeColor=none;fillColor=none;align=center;verticalAlign=middle;whiteSpace=wrap;rounded=0;movable=1;resizable=1;rotatable=1;deletable=1;editable=1;locked=0;connectable=1;" vertex="1" parent="1">
          <mxGeometry x="281" y="881" width="40" height="20" as="geometry" />
        </mxCell>
        <mxCell id="iKyUlA0jwbk502aVOzwF-242" value="A" style="text;html=1;strokeColor=none;fillColor=none;align=center;verticalAlign=middle;whiteSpace=wrap;rounded=0;movable=1;resizable=1;rotatable=1;deletable=1;editable=1;locked=0;connectable=1;" vertex="1" parent="1">
          <mxGeometry x="80" y="901" width="40" height="40" as="geometry" />
        </mxCell>
        <mxCell id="iKyUlA0jwbk502aVOzwF-243" value="1" style="whiteSpace=wrap;html=1;aspect=fixed;strokeWidth=0.5;fillColor=#dae8fc;strokeColor=#6c8ebf;movable=1;resizable=1;rotatable=1;deletable=1;editable=1;locked=0;connectable=1;" vertex="1" parent="1">
          <mxGeometry x="320" y="901" width="40" height="40" as="geometry" />
        </mxCell>
        <mxCell id="iKyUlA0jwbk502aVOzwF-244" value="2" style="whiteSpace=wrap;html=1;aspect=fixed;strokeWidth=0.5;fillColor=#dae8fc;strokeColor=#6c8ebf;movable=1;resizable=1;rotatable=1;deletable=1;editable=1;locked=0;connectable=1;" vertex="1" parent="1">
          <mxGeometry x="360" y="901" width="40" height="40" as="geometry" />
        </mxCell>
        <mxCell id="iKyUlA0jwbk502aVOzwF-245" value="3" style="whiteSpace=wrap;html=1;aspect=fixed;strokeWidth=0.5;fillColor=#dae8fc;strokeColor=#6c8ebf;movable=1;resizable=1;rotatable=1;deletable=1;editable=1;locked=0;connectable=1;" vertex="1" parent="1">
          <mxGeometry x="400" y="901" width="40" height="40" as="geometry" />
        </mxCell>
        <mxCell id="iKyUlA0jwbk502aVOzwF-246" value="6" style="whiteSpace=wrap;html=1;aspect=fixed;strokeWidth=0.5;fillColor=#dae8fc;strokeColor=#6c8ebf;movable=1;resizable=1;rotatable=1;deletable=1;editable=1;locked=0;connectable=1;" vertex="1" parent="1">
          <mxGeometry x="440" y="901" width="40" height="40" as="geometry" />
        </mxCell>
        <mxCell id="iKyUlA0jwbk502aVOzwF-247" value="…" style="whiteSpace=wrap;html=1;aspect=fixed;strokeWidth=0.5;fillColor=#dae8fc;strokeColor=#6c8ebf;movable=1;resizable=1;rotatable=1;deletable=1;editable=1;locked=0;connectable=1;" vertex="1" parent="1">
          <mxGeometry x="480" y="901" width="40" height="40" as="geometry" />
        </mxCell>
        <mxCell id="iKyUlA0jwbk502aVOzwF-248" value="13" style="text;html=1;strokeColor=none;fillColor=none;align=center;verticalAlign=middle;whiteSpace=wrap;rounded=0;movable=1;resizable=1;rotatable=1;deletable=1;editable=1;locked=0;connectable=1;" vertex="1" parent="1">
          <mxGeometry x="321" y="881" width="40" height="20" as="geometry" />
        </mxCell>
        <mxCell id="iKyUlA0jwbk502aVOzwF-249" value="14" style="text;html=1;strokeColor=none;fillColor=none;align=center;verticalAlign=middle;whiteSpace=wrap;rounded=0;movable=1;resizable=1;rotatable=1;deletable=1;editable=1;locked=0;connectable=1;" vertex="1" parent="1">
          <mxGeometry x="361" y="881" width="40" height="20" as="geometry" />
        </mxCell>
        <mxCell id="iKyUlA0jwbk502aVOzwF-250" value="15" style="text;html=1;strokeColor=none;fillColor=none;align=center;verticalAlign=middle;whiteSpace=wrap;rounded=0;movable=1;resizable=1;rotatable=1;deletable=1;editable=1;locked=0;connectable=1;" vertex="1" parent="1">
          <mxGeometry x="401" y="881" width="40" height="20" as="geometry" />
        </mxCell>
        <mxCell id="iKyUlA0jwbk502aVOzwF-251" value="16" style="text;html=1;strokeColor=none;fillColor=none;align=center;verticalAlign=middle;whiteSpace=wrap;rounded=0;movable=1;resizable=1;rotatable=1;deletable=1;editable=1;locked=0;connectable=1;" vertex="1" parent="1">
          <mxGeometry x="441" y="881" width="40" height="20" as="geometry" />
        </mxCell>
        <mxCell id="iKyUlA0jwbk502aVOzwF-252" value="17" style="text;html=1;strokeColor=none;fillColor=none;align=center;verticalAlign=middle;whiteSpace=wrap;rounded=0;movable=1;resizable=1;rotatable=1;deletable=1;editable=1;locked=0;connectable=1;" vertex="1" parent="1">
          <mxGeometry x="481" y="881" width="40" height="20" as="geometry" />
        </mxCell>
        <mxCell id="iKyUlA0jwbk502aVOzwF-253" value="…" style="whiteSpace=wrap;html=1;aspect=fixed;strokeWidth=0.5;fillColor=#dae8fc;strokeColor=#6c8ebf;movable=1;resizable=1;rotatable=1;deletable=1;editable=1;locked=0;connectable=1;" vertex="1" parent="1">
          <mxGeometry x="120" y="901" width="40" height="40" as="geometry" />
        </mxCell>
        <mxCell id="iKyUlA0jwbk502aVOzwF-254" value="8" style="text;html=1;strokeColor=none;fillColor=none;align=center;verticalAlign=middle;whiteSpace=wrap;rounded=0;movable=1;resizable=1;rotatable=1;deletable=1;editable=1;locked=0;connectable=1;" vertex="1" parent="1">
          <mxGeometry x="121" y="881" width="40" height="20" as="geometry" />
        </mxCell>
        <mxCell id="iKyUlA0jwbk502aVOzwF-255" value="i" style="text;html=1;strokeColor=none;fillColor=none;align=center;verticalAlign=middle;whiteSpace=wrap;rounded=0;movable=1;resizable=1;rotatable=1;deletable=1;editable=1;locked=0;connectable=1;" vertex="1" parent="1">
          <mxGeometry x="79" y="1040" width="40" height="20" as="geometry" />
        </mxCell>
        <mxCell id="iKyUlA0jwbk502aVOzwF-256" value="j" style="text;html=1;strokeColor=none;fillColor=none;align=center;verticalAlign=middle;whiteSpace=wrap;rounded=0;movable=1;resizable=1;rotatable=1;deletable=1;editable=1;locked=0;connectable=1;" vertex="1" parent="1">
          <mxGeometry x="359" y="1040" width="40" height="20" as="geometry" />
        </mxCell>
        <mxCell id="iKyUlA0jwbk502aVOzwF-257" value="(d)" style="text;html=1;strokeColor=none;fillColor=none;align=center;verticalAlign=middle;whiteSpace=wrap;rounded=0;movable=1;resizable=1;rotatable=1;deletable=1;editable=1;locked=0;connectable=1;" vertex="1" parent="1">
          <mxGeometry x="299" y="1060" width="40" height="20" as="geometry" />
        </mxCell>
        <mxCell id="iKyUlA0jwbk502aVOzwF-258" value="2" style="whiteSpace=wrap;html=1;aspect=fixed;strokeWidth=0.5;fillColor=#dae8fc;strokeColor=#6c8ebf;movable=1;resizable=1;rotatable=1;deletable=1;editable=1;locked=0;connectable=1;" vertex="1" parent="1">
          <mxGeometry x="81" y="1300" width="40" height="40" as="geometry" />
        </mxCell>
        <mxCell id="iKyUlA0jwbk502aVOzwF-259" value="4" style="whiteSpace=wrap;html=1;aspect=fixed;strokeWidth=0.5;fillColor=#f8cecc;strokeColor=#b85450;movable=1;resizable=1;rotatable=1;deletable=1;editable=1;locked=0;connectable=1;" vertex="1" parent="1">
          <mxGeometry x="121" y="1300" width="40" height="40" as="geometry" />
        </mxCell>
        <mxCell id="iKyUlA0jwbk502aVOzwF-260" value="5" style="whiteSpace=wrap;html=1;aspect=fixed;strokeWidth=0.5;fillColor=#f8cecc;strokeColor=#b85450;movable=1;resizable=1;rotatable=1;deletable=1;editable=1;locked=0;connectable=1;" vertex="1" parent="1">
          <mxGeometry x="161" y="1300" width="40" height="40" as="geometry" />
        </mxCell>
        <mxCell id="iKyUlA0jwbk502aVOzwF-261" value="7" style="whiteSpace=wrap;html=1;aspect=fixed;strokeWidth=0.5;fillColor=#f8cecc;strokeColor=#b85450;movable=1;resizable=1;rotatable=1;deletable=1;editable=1;locked=0;connectable=1;" vertex="1" parent="1">
          <mxGeometry x="201" y="1300" width="40" height="40" as="geometry" />
        </mxCell>
        <mxCell id="iKyUlA0jwbk502aVOzwF-262" value="∞" style="whiteSpace=wrap;html=1;aspect=fixed;strokeWidth=0.5;fillColor=#f8cecc;strokeColor=#b85450;movable=1;resizable=1;rotatable=1;deletable=1;editable=1;locked=0;connectable=1;" vertex="1" parent="1">
          <mxGeometry x="241" y="1300" width="40" height="40" as="geometry" />
        </mxCell>
        <mxCell id="iKyUlA0jwbk502aVOzwF-263" value="1" style="text;html=1;strokeColor=none;fillColor=none;align=center;verticalAlign=middle;whiteSpace=wrap;rounded=0;movable=1;resizable=1;rotatable=1;deletable=1;editable=1;locked=0;connectable=1;" vertex="1" parent="1">
          <mxGeometry x="81" y="1280" width="40" height="20" as="geometry" />
        </mxCell>
        <mxCell id="iKyUlA0jwbk502aVOzwF-264" value="2" style="text;html=1;strokeColor=none;fillColor=none;align=center;verticalAlign=middle;whiteSpace=wrap;rounded=0;movable=1;resizable=1;rotatable=1;deletable=1;editable=1;locked=0;connectable=1;" vertex="1" parent="1">
          <mxGeometry x="121" y="1280" width="40" height="20" as="geometry" />
        </mxCell>
        <mxCell id="iKyUlA0jwbk502aVOzwF-265" value="3" style="text;html=1;strokeColor=none;fillColor=none;align=center;verticalAlign=middle;whiteSpace=wrap;rounded=0;movable=1;resizable=1;rotatable=1;deletable=1;editable=1;locked=0;connectable=1;" vertex="1" parent="1">
          <mxGeometry x="161" y="1280" width="40" height="20" as="geometry" />
        </mxCell>
        <mxCell id="iKyUlA0jwbk502aVOzwF-266" value="4" style="text;html=1;strokeColor=none;fillColor=none;align=center;verticalAlign=middle;whiteSpace=wrap;rounded=0;movable=1;resizable=1;rotatable=1;deletable=1;editable=1;locked=0;connectable=1;" vertex="1" parent="1">
          <mxGeometry x="201" y="1280" width="40" height="20" as="geometry" />
        </mxCell>
        <mxCell id="iKyUlA0jwbk502aVOzwF-267" value="5" style="text;html=1;strokeColor=none;fillColor=none;align=center;verticalAlign=middle;whiteSpace=wrap;rounded=0;movable=1;resizable=1;rotatable=1;deletable=1;editable=1;locked=0;connectable=1;" vertex="1" parent="1">
          <mxGeometry x="241" y="1280" width="40" height="20" as="geometry" />
        </mxCell>
        <mxCell id="iKyUlA0jwbk502aVOzwF-268" value="L" style="text;html=1;strokeColor=none;fillColor=none;align=center;verticalAlign=middle;whiteSpace=wrap;rounded=0;movable=1;resizable=1;rotatable=1;deletable=1;editable=1;locked=0;connectable=1;" vertex="1" parent="1">
          <mxGeometry x="41" y="1300" width="40" height="40" as="geometry" />
        </mxCell>
        <mxCell id="iKyUlA0jwbk502aVOzwF-269" value="1" style="whiteSpace=wrap;html=1;aspect=fixed;strokeWidth=0.5;fillColor=#dae8fc;strokeColor=#6c8ebf;movable=1;resizable=1;rotatable=1;deletable=1;editable=1;locked=0;connectable=1;" vertex="1" parent="1">
          <mxGeometry x="361" y="1300" width="40" height="40" as="geometry" />
        </mxCell>
        <mxCell id="iKyUlA0jwbk502aVOzwF-270" value="2" style="whiteSpace=wrap;html=1;aspect=fixed;strokeWidth=0.5;fillColor=#dae8fc;strokeColor=#6c8ebf;movable=1;resizable=1;rotatable=1;deletable=1;editable=1;locked=0;connectable=1;" vertex="1" parent="1">
          <mxGeometry x="401" y="1300" width="40" height="40" as="geometry" />
        </mxCell>
        <mxCell id="iKyUlA0jwbk502aVOzwF-271" value="3" style="whiteSpace=wrap;html=1;aspect=fixed;strokeWidth=0.5;fillColor=#dae8fc;strokeColor=#6c8ebf;movable=1;resizable=1;rotatable=1;deletable=1;editable=1;locked=0;connectable=1;" vertex="1" parent="1">
          <mxGeometry x="441" y="1300" width="40" height="40" as="geometry" />
        </mxCell>
        <mxCell id="iKyUlA0jwbk502aVOzwF-272" value="6" style="whiteSpace=wrap;html=1;aspect=fixed;strokeWidth=0.5;fillColor=#f8cecc;strokeColor=#b85450;movable=1;resizable=1;rotatable=1;deletable=1;editable=1;locked=0;connectable=1;" vertex="1" parent="1">
          <mxGeometry x="481" y="1300" width="40" height="40" as="geometry" />
        </mxCell>
        <mxCell id="iKyUlA0jwbk502aVOzwF-273" value="∞" style="whiteSpace=wrap;html=1;aspect=fixed;strokeWidth=0.5;fillColor=#f8cecc;strokeColor=#b85450;movable=1;resizable=1;rotatable=1;deletable=1;editable=1;locked=0;connectable=1;" vertex="1" parent="1">
          <mxGeometry x="521" y="1300" width="40" height="40" as="geometry" />
        </mxCell>
        <mxCell id="iKyUlA0jwbk502aVOzwF-274" value="1" style="text;html=1;strokeColor=none;fillColor=none;align=center;verticalAlign=middle;whiteSpace=wrap;rounded=0;movable=1;resizable=1;rotatable=1;deletable=1;editable=1;locked=0;connectable=1;" vertex="1" parent="1">
          <mxGeometry x="361" y="1280" width="40" height="20" as="geometry" />
        </mxCell>
        <mxCell id="iKyUlA0jwbk502aVOzwF-275" value="2" style="text;html=1;strokeColor=none;fillColor=none;align=center;verticalAlign=middle;whiteSpace=wrap;rounded=0;movable=1;resizable=1;rotatable=1;deletable=1;editable=1;locked=0;connectable=1;" vertex="1" parent="1">
          <mxGeometry x="401" y="1280" width="40" height="20" as="geometry" />
        </mxCell>
        <mxCell id="iKyUlA0jwbk502aVOzwF-276" value="3" style="text;html=1;strokeColor=none;fillColor=none;align=center;verticalAlign=middle;whiteSpace=wrap;rounded=0;movable=1;resizable=1;rotatable=1;deletable=1;editable=1;locked=0;connectable=1;" vertex="1" parent="1">
          <mxGeometry x="441" y="1280" width="40" height="20" as="geometry" />
        </mxCell>
        <mxCell id="iKyUlA0jwbk502aVOzwF-277" value="4" style="text;html=1;strokeColor=none;fillColor=none;align=center;verticalAlign=middle;whiteSpace=wrap;rounded=0;movable=1;resizable=1;rotatable=1;deletable=1;editable=1;locked=0;connectable=1;" vertex="1" parent="1">
          <mxGeometry x="481" y="1280" width="40" height="20" as="geometry" />
        </mxCell>
        <mxCell id="iKyUlA0jwbk502aVOzwF-278" value="5" style="text;html=1;strokeColor=none;fillColor=none;align=center;verticalAlign=middle;whiteSpace=wrap;rounded=0;movable=1;resizable=1;rotatable=1;deletable=1;editable=1;locked=0;connectable=1;" vertex="1" parent="1">
          <mxGeometry x="521" y="1280" width="40" height="20" as="geometry" />
        </mxCell>
        <mxCell id="iKyUlA0jwbk502aVOzwF-279" value="R" style="text;html=1;strokeColor=none;fillColor=none;align=center;verticalAlign=middle;whiteSpace=wrap;rounded=0;movable=1;resizable=1;rotatable=1;deletable=1;editable=1;locked=0;connectable=1;" vertex="1" parent="1">
          <mxGeometry x="321" y="1300" width="40" height="40" as="geometry" />
        </mxCell>
        <mxCell id="iKyUlA0jwbk502aVOzwF-280" value="1" style="whiteSpace=wrap;html=1;aspect=fixed;strokeWidth=0.5;fillColor=#f8cecc;strokeColor=#b85450;movable=1;resizable=1;rotatable=1;deletable=1;editable=1;locked=0;connectable=1;" vertex="1" parent="1">
          <mxGeometry x="161" y="1200" width="40" height="40" as="geometry" />
        </mxCell>
        <mxCell id="iKyUlA0jwbk502aVOzwF-281" value="2" style="whiteSpace=wrap;html=1;aspect=fixed;strokeWidth=0.5;fillColor=#f8cecc;strokeColor=#b85450;movable=1;resizable=1;rotatable=1;deletable=1;editable=1;locked=0;connectable=1;" vertex="1" parent="1">
          <mxGeometry x="201" y="1200" width="40" height="40" as="geometry" />
        </mxCell>
        <mxCell id="iKyUlA0jwbk502aVOzwF-282" value="2" style="whiteSpace=wrap;html=1;aspect=fixed;strokeWidth=0.5;fillColor=#f8cecc;strokeColor=#b85450;movable=1;resizable=1;rotatable=1;deletable=1;editable=1;locked=0;connectable=1;" vertex="1" parent="1">
          <mxGeometry x="241" y="1200" width="40" height="40" as="geometry" />
        </mxCell>
        <mxCell id="iKyUlA0jwbk502aVOzwF-283" value="3" style="whiteSpace=wrap;html=1;aspect=fixed;strokeWidth=0.5;fillColor=#f8cecc;strokeColor=#b85450;movable=1;resizable=1;rotatable=1;deletable=1;editable=1;locked=0;connectable=1;" vertex="1" parent="1">
          <mxGeometry x="281" y="1200" width="40" height="40" as="geometry" />
        </mxCell>
        <mxCell id="iKyUlA0jwbk502aVOzwF-284" value="9" style="text;html=1;strokeColor=none;fillColor=none;align=center;verticalAlign=middle;whiteSpace=wrap;rounded=0;movable=1;resizable=1;rotatable=1;deletable=1;editable=1;locked=0;connectable=1;" vertex="1" parent="1">
          <mxGeometry x="162" y="1180" width="40" height="20" as="geometry" />
        </mxCell>
        <mxCell id="iKyUlA0jwbk502aVOzwF-285" value="10" style="text;html=1;strokeColor=none;fillColor=none;align=center;verticalAlign=middle;whiteSpace=wrap;rounded=0;movable=1;resizable=1;rotatable=1;deletable=1;editable=1;locked=0;connectable=1;" vertex="1" parent="1">
          <mxGeometry x="202" y="1180" width="40" height="20" as="geometry" />
        </mxCell>
        <mxCell id="iKyUlA0jwbk502aVOzwF-286" value="11" style="text;html=1;strokeColor=none;fillColor=none;align=center;verticalAlign=middle;whiteSpace=wrap;rounded=0;movable=1;resizable=1;rotatable=1;deletable=1;editable=1;locked=0;connectable=1;" vertex="1" parent="1">
          <mxGeometry x="242" y="1180" width="40" height="20" as="geometry" />
        </mxCell>
        <mxCell id="iKyUlA0jwbk502aVOzwF-287" value="12" style="text;html=1;strokeColor=none;fillColor=none;align=center;verticalAlign=middle;whiteSpace=wrap;rounded=0;movable=1;resizable=1;rotatable=1;deletable=1;editable=1;locked=0;connectable=1;" vertex="1" parent="1">
          <mxGeometry x="282" y="1180" width="40" height="20" as="geometry" />
        </mxCell>
        <mxCell id="iKyUlA0jwbk502aVOzwF-288" value="A" style="text;html=1;strokeColor=none;fillColor=none;align=center;verticalAlign=middle;whiteSpace=wrap;rounded=0;movable=1;resizable=1;rotatable=1;deletable=1;editable=1;locked=0;connectable=1;" vertex="1" parent="1">
          <mxGeometry x="81" y="1200" width="40" height="40" as="geometry" />
        </mxCell>
        <mxCell id="iKyUlA0jwbk502aVOzwF-289" value="1" style="whiteSpace=wrap;html=1;aspect=fixed;strokeWidth=0.5;fillColor=#dae8fc;strokeColor=#6c8ebf;movable=1;resizable=1;rotatable=1;deletable=1;editable=1;locked=0;connectable=1;" vertex="1" parent="1">
          <mxGeometry x="321" y="1200" width="40" height="40" as="geometry" />
        </mxCell>
        <mxCell id="iKyUlA0jwbk502aVOzwF-290" value="2" style="whiteSpace=wrap;html=1;aspect=fixed;strokeWidth=0.5;fillColor=#dae8fc;strokeColor=#6c8ebf;movable=1;resizable=1;rotatable=1;deletable=1;editable=1;locked=0;connectable=1;" vertex="1" parent="1">
          <mxGeometry x="361" y="1200" width="40" height="40" as="geometry" />
        </mxCell>
        <mxCell id="iKyUlA0jwbk502aVOzwF-291" value="3" style="whiteSpace=wrap;html=1;aspect=fixed;strokeWidth=0.5;fillColor=#dae8fc;strokeColor=#6c8ebf;movable=1;resizable=1;rotatable=1;deletable=1;editable=1;locked=0;connectable=1;" vertex="1" parent="1">
          <mxGeometry x="401" y="1200" width="40" height="40" as="geometry" />
        </mxCell>
        <mxCell id="iKyUlA0jwbk502aVOzwF-292" value="6" style="whiteSpace=wrap;html=1;aspect=fixed;strokeWidth=0.5;fillColor=#dae8fc;strokeColor=#6c8ebf;movable=1;resizable=1;rotatable=1;deletable=1;editable=1;locked=0;connectable=1;" vertex="1" parent="1">
          <mxGeometry x="441" y="1200" width="40" height="40" as="geometry" />
        </mxCell>
        <mxCell id="iKyUlA0jwbk502aVOzwF-293" value="…" style="whiteSpace=wrap;html=1;aspect=fixed;strokeWidth=0.5;fillColor=#dae8fc;strokeColor=#6c8ebf;movable=1;resizable=1;rotatable=1;deletable=1;editable=1;locked=0;connectable=1;" vertex="1" parent="1">
          <mxGeometry x="481" y="1200" width="40" height="40" as="geometry" />
        </mxCell>
        <mxCell id="iKyUlA0jwbk502aVOzwF-294" value="13" style="text;html=1;strokeColor=none;fillColor=none;align=center;verticalAlign=middle;whiteSpace=wrap;rounded=0;movable=1;resizable=1;rotatable=1;deletable=1;editable=1;locked=0;connectable=1;" vertex="1" parent="1">
          <mxGeometry x="322" y="1180" width="40" height="20" as="geometry" />
        </mxCell>
        <mxCell id="iKyUlA0jwbk502aVOzwF-295" value="14" style="text;html=1;strokeColor=none;fillColor=none;align=center;verticalAlign=middle;whiteSpace=wrap;rounded=0;movable=1;resizable=1;rotatable=1;deletable=1;editable=1;locked=0;connectable=1;" vertex="1" parent="1">
          <mxGeometry x="362" y="1180" width="40" height="20" as="geometry" />
        </mxCell>
        <mxCell id="iKyUlA0jwbk502aVOzwF-296" value="15" style="text;html=1;strokeColor=none;fillColor=none;align=center;verticalAlign=middle;whiteSpace=wrap;rounded=0;movable=1;resizable=1;rotatable=1;deletable=1;editable=1;locked=0;connectable=1;" vertex="1" parent="1">
          <mxGeometry x="402" y="1180" width="40" height="20" as="geometry" />
        </mxCell>
        <mxCell id="iKyUlA0jwbk502aVOzwF-297" value="16" style="text;html=1;strokeColor=none;fillColor=none;align=center;verticalAlign=middle;whiteSpace=wrap;rounded=0;movable=1;resizable=1;rotatable=1;deletable=1;editable=1;locked=0;connectable=1;" vertex="1" parent="1">
          <mxGeometry x="442" y="1180" width="40" height="20" as="geometry" />
        </mxCell>
        <mxCell id="iKyUlA0jwbk502aVOzwF-298" value="17" style="text;html=1;strokeColor=none;fillColor=none;align=center;verticalAlign=middle;whiteSpace=wrap;rounded=0;movable=1;resizable=1;rotatable=1;deletable=1;editable=1;locked=0;connectable=1;" vertex="1" parent="1">
          <mxGeometry x="482" y="1180" width="40" height="20" as="geometry" />
        </mxCell>
        <mxCell id="iKyUlA0jwbk502aVOzwF-299" value="…" style="whiteSpace=wrap;html=1;aspect=fixed;strokeWidth=0.5;fillColor=#dae8fc;strokeColor=#6c8ebf;movable=1;resizable=1;rotatable=1;deletable=1;editable=1;locked=0;connectable=1;" vertex="1" parent="1">
          <mxGeometry x="121" y="1200" width="40" height="40" as="geometry" />
        </mxCell>
        <mxCell id="iKyUlA0jwbk502aVOzwF-300" value="8" style="text;html=1;strokeColor=none;fillColor=none;align=center;verticalAlign=middle;whiteSpace=wrap;rounded=0;movable=1;resizable=1;rotatable=1;deletable=1;editable=1;locked=0;connectable=1;" vertex="1" parent="1">
          <mxGeometry x="122" y="1180" width="40" height="20" as="geometry" />
        </mxCell>
        <mxCell id="iKyUlA0jwbk502aVOzwF-301" value="i" style="text;html=1;strokeColor=none;fillColor=none;align=center;verticalAlign=middle;whiteSpace=wrap;rounded=0;movable=1;resizable=1;rotatable=1;deletable=1;editable=1;locked=0;connectable=1;" vertex="1" parent="1">
          <mxGeometry x="81" y="1340" width="40" height="20" as="geometry" />
        </mxCell>
        <mxCell id="iKyUlA0jwbk502aVOzwF-302" value="j" style="text;html=1;strokeColor=none;fillColor=none;align=center;verticalAlign=middle;whiteSpace=wrap;rounded=0;movable=1;resizable=1;rotatable=1;deletable=1;editable=1;locked=0;connectable=1;" vertex="1" parent="1">
          <mxGeometry x="361" y="1340" width="40" height="20" as="geometry" />
        </mxCell>
        <mxCell id="iKyUlA0jwbk502aVOzwF-303" value="(e)" style="text;html=1;strokeColor=none;fillColor=none;align=center;verticalAlign=middle;whiteSpace=wrap;rounded=0;movable=1;resizable=1;rotatable=1;deletable=1;editable=1;locked=0;connectable=1;" vertex="1" parent="1">
          <mxGeometry x="301" y="1360" width="40" height="20" as="geometry" />
        </mxCell>
        <mxCell id="iKyUlA0jwbk502aVOzwF-304" value="2" style="whiteSpace=wrap;html=1;aspect=fixed;strokeWidth=0.5;fillColor=#dae8fc;strokeColor=#6c8ebf;movable=1;resizable=1;rotatable=1;deletable=1;editable=1;locked=0;connectable=1;" vertex="1" parent="1">
          <mxGeometry x="79" y="1580" width="40" height="40" as="geometry" />
        </mxCell>
        <mxCell id="iKyUlA0jwbk502aVOzwF-305" value="4" style="whiteSpace=wrap;html=1;aspect=fixed;strokeWidth=0.5;fillColor=#dae8fc;strokeColor=#6c8ebf;movable=1;resizable=1;rotatable=1;deletable=1;editable=1;locked=0;connectable=1;" vertex="1" parent="1">
          <mxGeometry x="119" y="1580" width="40" height="40" as="geometry" />
        </mxCell>
        <mxCell id="iKyUlA0jwbk502aVOzwF-306" value="5" style="whiteSpace=wrap;html=1;aspect=fixed;strokeWidth=0.5;fillColor=#f8cecc;strokeColor=#b85450;movable=1;resizable=1;rotatable=1;deletable=1;editable=1;locked=0;connectable=1;" vertex="1" parent="1">
          <mxGeometry x="159" y="1580" width="40" height="40" as="geometry" />
        </mxCell>
        <mxCell id="iKyUlA0jwbk502aVOzwF-307" value="7" style="whiteSpace=wrap;html=1;aspect=fixed;strokeWidth=0.5;fillColor=#f8cecc;strokeColor=#b85450;movable=1;resizable=1;rotatable=1;deletable=1;editable=1;locked=0;connectable=1;" vertex="1" parent="1">
          <mxGeometry x="199" y="1580" width="40" height="40" as="geometry" />
        </mxCell>
        <mxCell id="iKyUlA0jwbk502aVOzwF-308" value="∞" style="whiteSpace=wrap;html=1;aspect=fixed;strokeWidth=0.5;fillColor=#f8cecc;strokeColor=#b85450;movable=1;resizable=1;rotatable=1;deletable=1;editable=1;locked=0;connectable=1;" vertex="1" parent="1">
          <mxGeometry x="239" y="1580" width="40" height="40" as="geometry" />
        </mxCell>
        <mxCell id="iKyUlA0jwbk502aVOzwF-309" value="1" style="text;html=1;strokeColor=none;fillColor=none;align=center;verticalAlign=middle;whiteSpace=wrap;rounded=0;movable=1;resizable=1;rotatable=1;deletable=1;editable=1;locked=0;connectable=1;" vertex="1" parent="1">
          <mxGeometry x="79" y="1560" width="40" height="20" as="geometry" />
        </mxCell>
        <mxCell id="iKyUlA0jwbk502aVOzwF-310" value="2" style="text;html=1;strokeColor=none;fillColor=none;align=center;verticalAlign=middle;whiteSpace=wrap;rounded=0;movable=1;resizable=1;rotatable=1;deletable=1;editable=1;locked=0;connectable=1;" vertex="1" parent="1">
          <mxGeometry x="119" y="1560" width="40" height="20" as="geometry" />
        </mxCell>
        <mxCell id="iKyUlA0jwbk502aVOzwF-311" value="3" style="text;html=1;strokeColor=none;fillColor=none;align=center;verticalAlign=middle;whiteSpace=wrap;rounded=0;movable=1;resizable=1;rotatable=1;deletable=1;editable=1;locked=0;connectable=1;" vertex="1" parent="1">
          <mxGeometry x="159" y="1560" width="40" height="20" as="geometry" />
        </mxCell>
        <mxCell id="iKyUlA0jwbk502aVOzwF-312" value="4" style="text;html=1;strokeColor=none;fillColor=none;align=center;verticalAlign=middle;whiteSpace=wrap;rounded=0;movable=1;resizable=1;rotatable=1;deletable=1;editable=1;locked=0;connectable=1;" vertex="1" parent="1">
          <mxGeometry x="199" y="1560" width="40" height="20" as="geometry" />
        </mxCell>
        <mxCell id="iKyUlA0jwbk502aVOzwF-313" value="5" style="text;html=1;strokeColor=none;fillColor=none;align=center;verticalAlign=middle;whiteSpace=wrap;rounded=0;movable=1;resizable=1;rotatable=1;deletable=1;editable=1;locked=0;connectable=1;" vertex="1" parent="1">
          <mxGeometry x="239" y="1560" width="40" height="20" as="geometry" />
        </mxCell>
        <mxCell id="iKyUlA0jwbk502aVOzwF-314" value="L" style="text;html=1;strokeColor=none;fillColor=none;align=center;verticalAlign=middle;whiteSpace=wrap;rounded=0;movable=1;resizable=1;rotatable=1;deletable=1;editable=1;locked=0;connectable=1;" vertex="1" parent="1">
          <mxGeometry x="39" y="1580" width="40" height="40" as="geometry" />
        </mxCell>
        <mxCell id="iKyUlA0jwbk502aVOzwF-315" value="1" style="whiteSpace=wrap;html=1;aspect=fixed;strokeWidth=0.5;fillColor=#dae8fc;strokeColor=#6c8ebf;movable=1;resizable=1;rotatable=1;deletable=1;editable=1;locked=0;connectable=1;" vertex="1" parent="1">
          <mxGeometry x="359" y="1580" width="40" height="40" as="geometry" />
        </mxCell>
        <mxCell id="iKyUlA0jwbk502aVOzwF-316" value="2" style="whiteSpace=wrap;html=1;aspect=fixed;strokeWidth=0.5;fillColor=#dae8fc;strokeColor=#6c8ebf;movable=1;resizable=1;rotatable=1;deletable=1;editable=1;locked=0;connectable=1;" vertex="1" parent="1">
          <mxGeometry x="399" y="1580" width="40" height="40" as="geometry" />
        </mxCell>
        <mxCell id="iKyUlA0jwbk502aVOzwF-317" value="3" style="whiteSpace=wrap;html=1;aspect=fixed;strokeWidth=0.5;fillColor=#dae8fc;strokeColor=#6c8ebf;movable=1;resizable=1;rotatable=1;deletable=1;editable=1;locked=0;connectable=1;" vertex="1" parent="1">
          <mxGeometry x="439" y="1580" width="40" height="40" as="geometry" />
        </mxCell>
        <mxCell id="iKyUlA0jwbk502aVOzwF-318" value="6" style="whiteSpace=wrap;html=1;aspect=fixed;strokeWidth=0.5;fillColor=#f8cecc;strokeColor=#b85450;movable=1;resizable=1;rotatable=1;deletable=1;editable=1;locked=0;connectable=1;" vertex="1" parent="1">
          <mxGeometry x="479" y="1580" width="40" height="40" as="geometry" />
        </mxCell>
        <mxCell id="iKyUlA0jwbk502aVOzwF-319" value="∞" style="whiteSpace=wrap;html=1;aspect=fixed;strokeWidth=0.5;fillColor=#f8cecc;strokeColor=#b85450;movable=1;resizable=1;rotatable=1;deletable=1;editable=1;locked=0;connectable=1;" vertex="1" parent="1">
          <mxGeometry x="519" y="1580" width="40" height="40" as="geometry" />
        </mxCell>
        <mxCell id="iKyUlA0jwbk502aVOzwF-320" value="1" style="text;html=1;strokeColor=none;fillColor=none;align=center;verticalAlign=middle;whiteSpace=wrap;rounded=0;movable=1;resizable=1;rotatable=1;deletable=1;editable=1;locked=0;connectable=1;" vertex="1" parent="1">
          <mxGeometry x="359" y="1560" width="40" height="20" as="geometry" />
        </mxCell>
        <mxCell id="iKyUlA0jwbk502aVOzwF-321" value="2" style="text;html=1;strokeColor=none;fillColor=none;align=center;verticalAlign=middle;whiteSpace=wrap;rounded=0;movable=1;resizable=1;rotatable=1;deletable=1;editable=1;locked=0;connectable=1;" vertex="1" parent="1">
          <mxGeometry x="399" y="1560" width="40" height="20" as="geometry" />
        </mxCell>
        <mxCell id="iKyUlA0jwbk502aVOzwF-322" value="3" style="text;html=1;strokeColor=none;fillColor=none;align=center;verticalAlign=middle;whiteSpace=wrap;rounded=0;movable=1;resizable=1;rotatable=1;deletable=1;editable=1;locked=0;connectable=1;" vertex="1" parent="1">
          <mxGeometry x="439" y="1560" width="40" height="20" as="geometry" />
        </mxCell>
        <mxCell id="iKyUlA0jwbk502aVOzwF-323" value="4" style="text;html=1;strokeColor=none;fillColor=none;align=center;verticalAlign=middle;whiteSpace=wrap;rounded=0;movable=1;resizable=1;rotatable=1;deletable=1;editable=1;locked=0;connectable=1;" vertex="1" parent="1">
          <mxGeometry x="479" y="1560" width="40" height="20" as="geometry" />
        </mxCell>
        <mxCell id="iKyUlA0jwbk502aVOzwF-324" value="5" style="text;html=1;strokeColor=none;fillColor=none;align=center;verticalAlign=middle;whiteSpace=wrap;rounded=0;movable=1;resizable=1;rotatable=1;deletable=1;editable=1;locked=0;connectable=1;" vertex="1" parent="1">
          <mxGeometry x="519" y="1560" width="40" height="20" as="geometry" />
        </mxCell>
        <mxCell id="iKyUlA0jwbk502aVOzwF-325" value="R" style="text;html=1;strokeColor=none;fillColor=none;align=center;verticalAlign=middle;whiteSpace=wrap;rounded=0;movable=1;resizable=1;rotatable=1;deletable=1;editable=1;locked=0;connectable=1;" vertex="1" parent="1">
          <mxGeometry x="319" y="1580" width="40" height="40" as="geometry" />
        </mxCell>
        <mxCell id="iKyUlA0jwbk502aVOzwF-326" value="1" style="whiteSpace=wrap;html=1;aspect=fixed;strokeWidth=0.5;fillColor=#f8cecc;strokeColor=#b85450;movable=1;resizable=1;rotatable=1;deletable=1;editable=1;locked=0;connectable=1;" vertex="1" parent="1">
          <mxGeometry x="160" y="1480" width="40" height="40" as="geometry" />
        </mxCell>
        <mxCell id="iKyUlA0jwbk502aVOzwF-327" value="2" style="whiteSpace=wrap;html=1;aspect=fixed;strokeWidth=0.5;fillColor=#f8cecc;strokeColor=#b85450;movable=1;resizable=1;rotatable=1;deletable=1;editable=1;locked=0;connectable=1;" vertex="1" parent="1">
          <mxGeometry x="200" y="1480" width="40" height="40" as="geometry" />
        </mxCell>
        <mxCell id="iKyUlA0jwbk502aVOzwF-328" value="2" style="whiteSpace=wrap;html=1;aspect=fixed;strokeWidth=0.5;fillColor=#f8cecc;strokeColor=#b85450;movable=1;resizable=1;rotatable=1;deletable=1;editable=1;locked=0;connectable=1;" vertex="1" parent="1">
          <mxGeometry x="240" y="1480" width="40" height="40" as="geometry" />
        </mxCell>
        <mxCell id="iKyUlA0jwbk502aVOzwF-329" value="3" style="whiteSpace=wrap;html=1;aspect=fixed;strokeWidth=0.5;fillColor=#f8cecc;strokeColor=#b85450;movable=1;resizable=1;rotatable=1;deletable=1;editable=1;locked=0;connectable=1;" vertex="1" parent="1">
          <mxGeometry x="280" y="1480" width="40" height="40" as="geometry" />
        </mxCell>
        <mxCell id="iKyUlA0jwbk502aVOzwF-330" value="9" style="text;html=1;strokeColor=none;fillColor=none;align=center;verticalAlign=middle;whiteSpace=wrap;rounded=0;movable=1;resizable=1;rotatable=1;deletable=1;editable=1;locked=0;connectable=1;" vertex="1" parent="1">
          <mxGeometry x="161" y="1460" width="40" height="20" as="geometry" />
        </mxCell>
        <mxCell id="iKyUlA0jwbk502aVOzwF-331" value="10" style="text;html=1;strokeColor=none;fillColor=none;align=center;verticalAlign=middle;whiteSpace=wrap;rounded=0;movable=1;resizable=1;rotatable=1;deletable=1;editable=1;locked=0;connectable=1;" vertex="1" parent="1">
          <mxGeometry x="201" y="1460" width="40" height="20" as="geometry" />
        </mxCell>
        <mxCell id="iKyUlA0jwbk502aVOzwF-332" value="11" style="text;html=1;strokeColor=none;fillColor=none;align=center;verticalAlign=middle;whiteSpace=wrap;rounded=0;movable=1;resizable=1;rotatable=1;deletable=1;editable=1;locked=0;connectable=1;" vertex="1" parent="1">
          <mxGeometry x="241" y="1460" width="40" height="20" as="geometry" />
        </mxCell>
        <mxCell id="iKyUlA0jwbk502aVOzwF-333" value="12" style="text;html=1;strokeColor=none;fillColor=none;align=center;verticalAlign=middle;whiteSpace=wrap;rounded=0;movable=1;resizable=1;rotatable=1;deletable=1;editable=1;locked=0;connectable=1;" vertex="1" parent="1">
          <mxGeometry x="281" y="1460" width="40" height="20" as="geometry" />
        </mxCell>
        <mxCell id="iKyUlA0jwbk502aVOzwF-334" value="A" style="text;html=1;strokeColor=none;fillColor=none;align=center;verticalAlign=middle;whiteSpace=wrap;rounded=0;movable=1;resizable=1;rotatable=1;deletable=1;editable=1;locked=0;connectable=1;" vertex="1" parent="1">
          <mxGeometry x="80" y="1480" width="40" height="40" as="geometry" />
        </mxCell>
        <mxCell id="iKyUlA0jwbk502aVOzwF-335" value="4" style="whiteSpace=wrap;html=1;aspect=fixed;strokeWidth=0.5;fillColor=#f8cecc;strokeColor=#b85450;movable=1;resizable=1;rotatable=1;deletable=1;editable=1;locked=0;connectable=1;" vertex="1" parent="1">
          <mxGeometry x="320" y="1480" width="40" height="40" as="geometry" />
        </mxCell>
        <mxCell id="iKyUlA0jwbk502aVOzwF-336" value="2" style="whiteSpace=wrap;html=1;aspect=fixed;strokeWidth=0.5;fillColor=#dae8fc;strokeColor=#6c8ebf;movable=1;resizable=1;rotatable=1;deletable=1;editable=1;locked=0;connectable=1;" vertex="1" parent="1">
          <mxGeometry x="360" y="1480" width="40" height="40" as="geometry" />
        </mxCell>
        <mxCell id="iKyUlA0jwbk502aVOzwF-337" value="3" style="whiteSpace=wrap;html=1;aspect=fixed;strokeWidth=0.5;fillColor=#dae8fc;strokeColor=#6c8ebf;movable=1;resizable=1;rotatable=1;deletable=1;editable=1;locked=0;connectable=1;" vertex="1" parent="1">
          <mxGeometry x="400" y="1480" width="40" height="40" as="geometry" />
        </mxCell>
        <mxCell id="iKyUlA0jwbk502aVOzwF-338" value="6" style="whiteSpace=wrap;html=1;aspect=fixed;strokeWidth=0.5;fillColor=#dae8fc;strokeColor=#6c8ebf;movable=1;resizable=1;rotatable=1;deletable=1;editable=1;locked=0;connectable=1;" vertex="1" parent="1">
          <mxGeometry x="440" y="1480" width="40" height="40" as="geometry" />
        </mxCell>
        <mxCell id="iKyUlA0jwbk502aVOzwF-339" value="…" style="whiteSpace=wrap;html=1;aspect=fixed;strokeWidth=0.5;fillColor=#dae8fc;strokeColor=#6c8ebf;movable=1;resizable=1;rotatable=1;deletable=1;editable=1;locked=0;connectable=1;" vertex="1" parent="1">
          <mxGeometry x="480" y="1480" width="40" height="40" as="geometry" />
        </mxCell>
        <mxCell id="iKyUlA0jwbk502aVOzwF-340" value="13" style="text;html=1;strokeColor=none;fillColor=none;align=center;verticalAlign=middle;whiteSpace=wrap;rounded=0;movable=1;resizable=1;rotatable=1;deletable=1;editable=1;locked=0;connectable=1;" vertex="1" parent="1">
          <mxGeometry x="321" y="1460" width="40" height="20" as="geometry" />
        </mxCell>
        <mxCell id="iKyUlA0jwbk502aVOzwF-341" value="14" style="text;html=1;strokeColor=none;fillColor=none;align=center;verticalAlign=middle;whiteSpace=wrap;rounded=0;movable=1;resizable=1;rotatable=1;deletable=1;editable=1;locked=0;connectable=1;" vertex="1" parent="1">
          <mxGeometry x="361" y="1460" width="40" height="20" as="geometry" />
        </mxCell>
        <mxCell id="iKyUlA0jwbk502aVOzwF-342" value="15" style="text;html=1;strokeColor=none;fillColor=none;align=center;verticalAlign=middle;whiteSpace=wrap;rounded=0;movable=1;resizable=1;rotatable=1;deletable=1;editable=1;locked=0;connectable=1;" vertex="1" parent="1">
          <mxGeometry x="401" y="1460" width="40" height="20" as="geometry" />
        </mxCell>
        <mxCell id="iKyUlA0jwbk502aVOzwF-343" value="16" style="text;html=1;strokeColor=none;fillColor=none;align=center;verticalAlign=middle;whiteSpace=wrap;rounded=0;movable=1;resizable=1;rotatable=1;deletable=1;editable=1;locked=0;connectable=1;" vertex="1" parent="1">
          <mxGeometry x="441" y="1460" width="40" height="20" as="geometry" />
        </mxCell>
        <mxCell id="iKyUlA0jwbk502aVOzwF-344" value="17" style="text;html=1;strokeColor=none;fillColor=none;align=center;verticalAlign=middle;whiteSpace=wrap;rounded=0;movable=1;resizable=1;rotatable=1;deletable=1;editable=1;locked=0;connectable=1;" vertex="1" parent="1">
          <mxGeometry x="481" y="1460" width="40" height="20" as="geometry" />
        </mxCell>
        <mxCell id="iKyUlA0jwbk502aVOzwF-345" value="…" style="whiteSpace=wrap;html=1;aspect=fixed;strokeWidth=0.5;fillColor=#dae8fc;strokeColor=#6c8ebf;movable=1;resizable=1;rotatable=1;deletable=1;editable=1;locked=0;connectable=1;" vertex="1" parent="1">
          <mxGeometry x="120" y="1480" width="40" height="40" as="geometry" />
        </mxCell>
        <mxCell id="iKyUlA0jwbk502aVOzwF-346" value="8" style="text;html=1;strokeColor=none;fillColor=none;align=center;verticalAlign=middle;whiteSpace=wrap;rounded=0;movable=1;resizable=1;rotatable=1;deletable=1;editable=1;locked=0;connectable=1;" vertex="1" parent="1">
          <mxGeometry x="121" y="1460" width="40" height="20" as="geometry" />
        </mxCell>
        <mxCell id="iKyUlA0jwbk502aVOzwF-347" value="i" style="text;html=1;strokeColor=none;fillColor=none;align=center;verticalAlign=middle;whiteSpace=wrap;rounded=0;movable=1;resizable=1;rotatable=1;deletable=1;editable=1;locked=0;connectable=1;" vertex="1" parent="1">
          <mxGeometry x="79" y="1620" width="40" height="20" as="geometry" />
        </mxCell>
        <mxCell id="iKyUlA0jwbk502aVOzwF-348" value="j" style="text;html=1;strokeColor=none;fillColor=none;align=center;verticalAlign=middle;whiteSpace=wrap;rounded=0;movable=1;resizable=1;rotatable=1;deletable=1;editable=1;locked=0;connectable=1;" vertex="1" parent="1">
          <mxGeometry x="359" y="1620" width="40" height="20" as="geometry" />
        </mxCell>
        <mxCell id="iKyUlA0jwbk502aVOzwF-349" value="(f)" style="text;html=1;strokeColor=none;fillColor=none;align=center;verticalAlign=middle;whiteSpace=wrap;rounded=0;movable=1;resizable=1;rotatable=1;deletable=1;editable=1;locked=0;connectable=1;" vertex="1" parent="1">
          <mxGeometry x="299" y="1640" width="40" height="20" as="geometry" />
        </mxCell>
        <mxCell id="iKyUlA0jwbk502aVOzwF-350" value="2" style="whiteSpace=wrap;html=1;aspect=fixed;strokeWidth=0.5;fillColor=#dae8fc;strokeColor=#6c8ebf;movable=1;resizable=1;rotatable=1;deletable=1;editable=1;locked=0;connectable=1;" vertex="1" parent="1">
          <mxGeometry x="79" y="1860" width="40" height="40" as="geometry" />
        </mxCell>
        <mxCell id="iKyUlA0jwbk502aVOzwF-351" value="4" style="whiteSpace=wrap;html=1;aspect=fixed;strokeWidth=0.5;fillColor=#dae8fc;strokeColor=#6c8ebf;movable=1;resizable=1;rotatable=1;deletable=1;editable=1;locked=0;connectable=1;" vertex="1" parent="1">
          <mxGeometry x="119" y="1860" width="40" height="40" as="geometry" />
        </mxCell>
        <mxCell id="iKyUlA0jwbk502aVOzwF-352" value="5" style="whiteSpace=wrap;html=1;aspect=fixed;strokeWidth=0.5;fillColor=#dae8fc;strokeColor=#6c8ebf;movable=1;resizable=1;rotatable=1;deletable=1;editable=1;locked=0;connectable=1;" vertex="1" parent="1">
          <mxGeometry x="159" y="1860" width="40" height="40" as="geometry" />
        </mxCell>
        <mxCell id="iKyUlA0jwbk502aVOzwF-353" value="7" style="whiteSpace=wrap;html=1;aspect=fixed;strokeWidth=0.5;fillColor=#f8cecc;strokeColor=#b85450;movable=1;resizable=1;rotatable=1;deletable=1;editable=1;locked=0;connectable=1;" vertex="1" parent="1">
          <mxGeometry x="199" y="1860" width="40" height="40" as="geometry" />
        </mxCell>
        <mxCell id="iKyUlA0jwbk502aVOzwF-354" value="∞" style="whiteSpace=wrap;html=1;aspect=fixed;strokeWidth=0.5;fillColor=#f8cecc;strokeColor=#b85450;movable=1;resizable=1;rotatable=1;deletable=1;editable=1;locked=0;connectable=1;" vertex="1" parent="1">
          <mxGeometry x="239" y="1860" width="40" height="40" as="geometry" />
        </mxCell>
        <mxCell id="iKyUlA0jwbk502aVOzwF-355" value="1" style="text;html=1;strokeColor=none;fillColor=none;align=center;verticalAlign=middle;whiteSpace=wrap;rounded=0;movable=1;resizable=1;rotatable=1;deletable=1;editable=1;locked=0;connectable=1;" vertex="1" parent="1">
          <mxGeometry x="79" y="1840" width="40" height="20" as="geometry" />
        </mxCell>
        <mxCell id="iKyUlA0jwbk502aVOzwF-356" value="2" style="text;html=1;strokeColor=none;fillColor=none;align=center;verticalAlign=middle;whiteSpace=wrap;rounded=0;movable=1;resizable=1;rotatable=1;deletable=1;editable=1;locked=0;connectable=1;" vertex="1" parent="1">
          <mxGeometry x="119" y="1840" width="40" height="20" as="geometry" />
        </mxCell>
        <mxCell id="iKyUlA0jwbk502aVOzwF-357" value="3" style="text;html=1;strokeColor=none;fillColor=none;align=center;verticalAlign=middle;whiteSpace=wrap;rounded=0;movable=1;resizable=1;rotatable=1;deletable=1;editable=1;locked=0;connectable=1;" vertex="1" parent="1">
          <mxGeometry x="159" y="1840" width="40" height="20" as="geometry" />
        </mxCell>
        <mxCell id="iKyUlA0jwbk502aVOzwF-358" value="4" style="text;html=1;strokeColor=none;fillColor=none;align=center;verticalAlign=middle;whiteSpace=wrap;rounded=0;movable=1;resizable=1;rotatable=1;deletable=1;editable=1;locked=0;connectable=1;" vertex="1" parent="1">
          <mxGeometry x="199" y="1840" width="40" height="20" as="geometry" />
        </mxCell>
        <mxCell id="iKyUlA0jwbk502aVOzwF-359" value="5" style="text;html=1;strokeColor=none;fillColor=none;align=center;verticalAlign=middle;whiteSpace=wrap;rounded=0;movable=1;resizable=1;rotatable=1;deletable=1;editable=1;locked=0;connectable=1;" vertex="1" parent="1">
          <mxGeometry x="239" y="1840" width="40" height="20" as="geometry" />
        </mxCell>
        <mxCell id="iKyUlA0jwbk502aVOzwF-360" value="L" style="text;html=1;strokeColor=none;fillColor=none;align=center;verticalAlign=middle;whiteSpace=wrap;rounded=0;movable=1;resizable=1;rotatable=1;deletable=1;editable=1;locked=0;connectable=1;" vertex="1" parent="1">
          <mxGeometry x="39" y="1860" width="40" height="40" as="geometry" />
        </mxCell>
        <mxCell id="iKyUlA0jwbk502aVOzwF-361" value="1" style="whiteSpace=wrap;html=1;aspect=fixed;strokeWidth=0.5;fillColor=#dae8fc;strokeColor=#6c8ebf;movable=1;resizable=1;rotatable=1;deletable=1;editable=1;locked=0;connectable=1;" vertex="1" parent="1">
          <mxGeometry x="359" y="1860" width="40" height="40" as="geometry" />
        </mxCell>
        <mxCell id="iKyUlA0jwbk502aVOzwF-362" value="2" style="whiteSpace=wrap;html=1;aspect=fixed;strokeWidth=0.5;fillColor=#dae8fc;strokeColor=#6c8ebf;movable=1;resizable=1;rotatable=1;deletable=1;editable=1;locked=0;connectable=1;" vertex="1" parent="1">
          <mxGeometry x="399" y="1860" width="40" height="40" as="geometry" />
        </mxCell>
        <mxCell id="iKyUlA0jwbk502aVOzwF-363" value="3" style="whiteSpace=wrap;html=1;aspect=fixed;strokeWidth=0.5;fillColor=#dae8fc;strokeColor=#6c8ebf;movable=1;resizable=1;rotatable=1;deletable=1;editable=1;locked=0;connectable=1;" vertex="1" parent="1">
          <mxGeometry x="439" y="1860" width="40" height="40" as="geometry" />
        </mxCell>
        <mxCell id="iKyUlA0jwbk502aVOzwF-364" value="6" style="whiteSpace=wrap;html=1;aspect=fixed;strokeWidth=0.5;fillColor=#f8cecc;strokeColor=#b85450;movable=1;resizable=1;rotatable=1;deletable=1;editable=1;locked=0;connectable=1;" vertex="1" parent="1">
          <mxGeometry x="479" y="1860" width="40" height="40" as="geometry" />
        </mxCell>
        <mxCell id="iKyUlA0jwbk502aVOzwF-365" value="∞" style="whiteSpace=wrap;html=1;aspect=fixed;strokeWidth=0.5;fillColor=#f8cecc;strokeColor=#b85450;movable=1;resizable=1;rotatable=1;deletable=1;editable=1;locked=0;connectable=1;" vertex="1" parent="1">
          <mxGeometry x="519" y="1860" width="40" height="40" as="geometry" />
        </mxCell>
        <mxCell id="iKyUlA0jwbk502aVOzwF-366" value="1" style="text;html=1;strokeColor=none;fillColor=none;align=center;verticalAlign=middle;whiteSpace=wrap;rounded=0;movable=1;resizable=1;rotatable=1;deletable=1;editable=1;locked=0;connectable=1;" vertex="1" parent="1">
          <mxGeometry x="359" y="1840" width="40" height="20" as="geometry" />
        </mxCell>
        <mxCell id="iKyUlA0jwbk502aVOzwF-367" value="2" style="text;html=1;strokeColor=none;fillColor=none;align=center;verticalAlign=middle;whiteSpace=wrap;rounded=0;movable=1;resizable=1;rotatable=1;deletable=1;editable=1;locked=0;connectable=1;" vertex="1" parent="1">
          <mxGeometry x="399" y="1840" width="40" height="20" as="geometry" />
        </mxCell>
        <mxCell id="iKyUlA0jwbk502aVOzwF-368" value="3" style="text;html=1;strokeColor=none;fillColor=none;align=center;verticalAlign=middle;whiteSpace=wrap;rounded=0;movable=1;resizable=1;rotatable=1;deletable=1;editable=1;locked=0;connectable=1;" vertex="1" parent="1">
          <mxGeometry x="439" y="1840" width="40" height="20" as="geometry" />
        </mxCell>
        <mxCell id="iKyUlA0jwbk502aVOzwF-369" value="4" style="text;html=1;strokeColor=none;fillColor=none;align=center;verticalAlign=middle;whiteSpace=wrap;rounded=0;movable=1;resizable=1;rotatable=1;deletable=1;editable=1;locked=0;connectable=1;" vertex="1" parent="1">
          <mxGeometry x="479" y="1840" width="40" height="20" as="geometry" />
        </mxCell>
        <mxCell id="iKyUlA0jwbk502aVOzwF-370" value="5" style="text;html=1;strokeColor=none;fillColor=none;align=center;verticalAlign=middle;whiteSpace=wrap;rounded=0;movable=1;resizable=1;rotatable=1;deletable=1;editable=1;locked=0;connectable=1;" vertex="1" parent="1">
          <mxGeometry x="519" y="1840" width="40" height="20" as="geometry" />
        </mxCell>
        <mxCell id="iKyUlA0jwbk502aVOzwF-371" value="R" style="text;html=1;strokeColor=none;fillColor=none;align=center;verticalAlign=middle;whiteSpace=wrap;rounded=0;movable=1;resizable=1;rotatable=1;deletable=1;editable=1;locked=0;connectable=1;" vertex="1" parent="1">
          <mxGeometry x="319" y="1860" width="40" height="40" as="geometry" />
        </mxCell>
        <mxCell id="iKyUlA0jwbk502aVOzwF-372" value="1" style="whiteSpace=wrap;html=1;aspect=fixed;strokeWidth=0.5;fillColor=#f8cecc;strokeColor=#b85450;movable=1;resizable=1;rotatable=1;deletable=1;editable=1;locked=0;connectable=1;" vertex="1" parent="1">
          <mxGeometry x="160" y="1760" width="40" height="40" as="geometry" />
        </mxCell>
        <mxCell id="iKyUlA0jwbk502aVOzwF-373" value="2" style="whiteSpace=wrap;html=1;aspect=fixed;strokeWidth=0.5;fillColor=#f8cecc;strokeColor=#b85450;movable=1;resizable=1;rotatable=1;deletable=1;editable=1;locked=0;connectable=1;" vertex="1" parent="1">
          <mxGeometry x="200" y="1760" width="40" height="40" as="geometry" />
        </mxCell>
        <mxCell id="iKyUlA0jwbk502aVOzwF-374" value="2" style="whiteSpace=wrap;html=1;aspect=fixed;strokeWidth=0.5;fillColor=#f8cecc;strokeColor=#b85450;movable=1;resizable=1;rotatable=1;deletable=1;editable=1;locked=0;connectable=1;" vertex="1" parent="1">
          <mxGeometry x="240" y="1760" width="40" height="40" as="geometry" />
        </mxCell>
        <mxCell id="iKyUlA0jwbk502aVOzwF-375" value="3" style="whiteSpace=wrap;html=1;aspect=fixed;strokeWidth=0.5;fillColor=#f8cecc;strokeColor=#b85450;movable=1;resizable=1;rotatable=1;deletable=1;editable=1;locked=0;connectable=1;" vertex="1" parent="1">
          <mxGeometry x="280" y="1760" width="40" height="40" as="geometry" />
        </mxCell>
        <mxCell id="iKyUlA0jwbk502aVOzwF-376" value="9" style="text;html=1;strokeColor=none;fillColor=none;align=center;verticalAlign=middle;whiteSpace=wrap;rounded=0;movable=1;resizable=1;rotatable=1;deletable=1;editable=1;locked=0;connectable=1;" vertex="1" parent="1">
          <mxGeometry x="161" y="1740" width="40" height="20" as="geometry" />
        </mxCell>
        <mxCell id="iKyUlA0jwbk502aVOzwF-377" value="10" style="text;html=1;strokeColor=none;fillColor=none;align=center;verticalAlign=middle;whiteSpace=wrap;rounded=0;movable=1;resizable=1;rotatable=1;deletable=1;editable=1;locked=0;connectable=1;" vertex="1" parent="1">
          <mxGeometry x="201" y="1740" width="40" height="20" as="geometry" />
        </mxCell>
        <mxCell id="iKyUlA0jwbk502aVOzwF-378" value="11" style="text;html=1;strokeColor=none;fillColor=none;align=center;verticalAlign=middle;whiteSpace=wrap;rounded=0;movable=1;resizable=1;rotatable=1;deletable=1;editable=1;locked=0;connectable=1;" vertex="1" parent="1">
          <mxGeometry x="241" y="1740" width="40" height="20" as="geometry" />
        </mxCell>
        <mxCell id="iKyUlA0jwbk502aVOzwF-379" value="12" style="text;html=1;strokeColor=none;fillColor=none;align=center;verticalAlign=middle;whiteSpace=wrap;rounded=0;movable=1;resizable=1;rotatable=1;deletable=1;editable=1;locked=0;connectable=1;" vertex="1" parent="1">
          <mxGeometry x="281" y="1740" width="40" height="20" as="geometry" />
        </mxCell>
        <mxCell id="iKyUlA0jwbk502aVOzwF-380" value="A" style="text;html=1;strokeColor=none;fillColor=none;align=center;verticalAlign=middle;whiteSpace=wrap;rounded=0;movable=1;resizable=1;rotatable=1;deletable=1;editable=1;locked=0;connectable=1;" vertex="1" parent="1">
          <mxGeometry x="80" y="1760" width="40" height="40" as="geometry" />
        </mxCell>
        <mxCell id="iKyUlA0jwbk502aVOzwF-381" value="4" style="whiteSpace=wrap;html=1;aspect=fixed;strokeWidth=0.5;fillColor=#f8cecc;strokeColor=#b85450;movable=1;resizable=1;rotatable=1;deletable=1;editable=1;locked=0;connectable=1;" vertex="1" parent="1">
          <mxGeometry x="320" y="1760" width="40" height="40" as="geometry" />
        </mxCell>
        <mxCell id="iKyUlA0jwbk502aVOzwF-382" value="5" style="whiteSpace=wrap;html=1;aspect=fixed;strokeWidth=0.5;fillColor=#f8cecc;strokeColor=#b85450;movable=1;resizable=1;rotatable=1;deletable=1;editable=1;locked=0;connectable=1;" vertex="1" parent="1">
          <mxGeometry x="360" y="1760" width="40" height="40" as="geometry" />
        </mxCell>
        <mxCell id="iKyUlA0jwbk502aVOzwF-383" value="3" style="whiteSpace=wrap;html=1;aspect=fixed;strokeWidth=0.5;fillColor=#dae8fc;strokeColor=#6c8ebf;movable=1;resizable=1;rotatable=1;deletable=1;editable=1;locked=0;connectable=1;" vertex="1" parent="1">
          <mxGeometry x="400" y="1760" width="40" height="40" as="geometry" />
        </mxCell>
        <mxCell id="iKyUlA0jwbk502aVOzwF-384" value="6" style="whiteSpace=wrap;html=1;aspect=fixed;strokeWidth=0.5;fillColor=#dae8fc;strokeColor=#6c8ebf;movable=1;resizable=1;rotatable=1;deletable=1;editable=1;locked=0;connectable=1;" vertex="1" parent="1">
          <mxGeometry x="440" y="1760" width="40" height="40" as="geometry" />
        </mxCell>
        <mxCell id="iKyUlA0jwbk502aVOzwF-385" value="…" style="whiteSpace=wrap;html=1;aspect=fixed;strokeWidth=0.5;fillColor=#dae8fc;strokeColor=#6c8ebf;movable=1;resizable=1;rotatable=1;deletable=1;editable=1;locked=0;connectable=1;" vertex="1" parent="1">
          <mxGeometry x="480" y="1760" width="40" height="40" as="geometry" />
        </mxCell>
        <mxCell id="iKyUlA0jwbk502aVOzwF-386" value="13" style="text;html=1;strokeColor=none;fillColor=none;align=center;verticalAlign=middle;whiteSpace=wrap;rounded=0;movable=1;resizable=1;rotatable=1;deletable=1;editable=1;locked=0;connectable=1;" vertex="1" parent="1">
          <mxGeometry x="321" y="1740" width="40" height="20" as="geometry" />
        </mxCell>
        <mxCell id="iKyUlA0jwbk502aVOzwF-387" value="14" style="text;html=1;strokeColor=none;fillColor=none;align=center;verticalAlign=middle;whiteSpace=wrap;rounded=0;movable=1;resizable=1;rotatable=1;deletable=1;editable=1;locked=0;connectable=1;" vertex="1" parent="1">
          <mxGeometry x="361" y="1740" width="40" height="20" as="geometry" />
        </mxCell>
        <mxCell id="iKyUlA0jwbk502aVOzwF-388" value="15" style="text;html=1;strokeColor=none;fillColor=none;align=center;verticalAlign=middle;whiteSpace=wrap;rounded=0;movable=1;resizable=1;rotatable=1;deletable=1;editable=1;locked=0;connectable=1;" vertex="1" parent="1">
          <mxGeometry x="401" y="1740" width="40" height="20" as="geometry" />
        </mxCell>
        <mxCell id="iKyUlA0jwbk502aVOzwF-389" value="16" style="text;html=1;strokeColor=none;fillColor=none;align=center;verticalAlign=middle;whiteSpace=wrap;rounded=0;movable=1;resizable=1;rotatable=1;deletable=1;editable=1;locked=0;connectable=1;" vertex="1" parent="1">
          <mxGeometry x="441" y="1740" width="40" height="20" as="geometry" />
        </mxCell>
        <mxCell id="iKyUlA0jwbk502aVOzwF-390" value="17" style="text;html=1;strokeColor=none;fillColor=none;align=center;verticalAlign=middle;whiteSpace=wrap;rounded=0;movable=1;resizable=1;rotatable=1;deletable=1;editable=1;locked=0;connectable=1;" vertex="1" parent="1">
          <mxGeometry x="481" y="1740" width="40" height="20" as="geometry" />
        </mxCell>
        <mxCell id="iKyUlA0jwbk502aVOzwF-391" value="…" style="whiteSpace=wrap;html=1;aspect=fixed;strokeWidth=0.5;fillColor=#dae8fc;strokeColor=#6c8ebf;movable=1;resizable=1;rotatable=1;deletable=1;editable=1;locked=0;connectable=1;" vertex="1" parent="1">
          <mxGeometry x="120" y="1760" width="40" height="40" as="geometry" />
        </mxCell>
        <mxCell id="iKyUlA0jwbk502aVOzwF-392" value="8" style="text;html=1;strokeColor=none;fillColor=none;align=center;verticalAlign=middle;whiteSpace=wrap;rounded=0;movable=1;resizable=1;rotatable=1;deletable=1;editable=1;locked=0;connectable=1;" vertex="1" parent="1">
          <mxGeometry x="121" y="1740" width="40" height="20" as="geometry" />
        </mxCell>
        <mxCell id="iKyUlA0jwbk502aVOzwF-393" value="i" style="text;html=1;strokeColor=none;fillColor=none;align=center;verticalAlign=middle;whiteSpace=wrap;rounded=0;movable=1;resizable=1;rotatable=1;deletable=1;editable=1;locked=0;connectable=1;" vertex="1" parent="1">
          <mxGeometry x="79" y="1900" width="40" height="20" as="geometry" />
        </mxCell>
        <mxCell id="iKyUlA0jwbk502aVOzwF-394" value="j" style="text;html=1;strokeColor=none;fillColor=none;align=center;verticalAlign=middle;whiteSpace=wrap;rounded=0;movable=1;resizable=1;rotatable=1;deletable=1;editable=1;locked=0;connectable=1;" vertex="1" parent="1">
          <mxGeometry x="359" y="1900" width="40" height="20" as="geometry" />
        </mxCell>
        <mxCell id="iKyUlA0jwbk502aVOzwF-395" value="(g)" style="text;html=1;strokeColor=none;fillColor=none;align=center;verticalAlign=middle;whiteSpace=wrap;rounded=0;movable=1;resizable=1;rotatable=1;deletable=1;editable=1;locked=0;connectable=1;" vertex="1" parent="1">
          <mxGeometry x="299" y="1920" width="40" height="20" as="geometry" />
        </mxCell>
        <mxCell id="iKyUlA0jwbk502aVOzwF-396" value="2" style="whiteSpace=wrap;html=1;aspect=fixed;strokeWidth=0.5;fillColor=#dae8fc;strokeColor=#6c8ebf;movable=1;resizable=1;rotatable=1;deletable=1;editable=1;locked=0;connectable=1;" vertex="1" parent="1">
          <mxGeometry x="79" y="2140" width="40" height="40" as="geometry" />
        </mxCell>
        <mxCell id="iKyUlA0jwbk502aVOzwF-397" value="4" style="whiteSpace=wrap;html=1;aspect=fixed;strokeWidth=0.5;fillColor=#dae8fc;strokeColor=#6c8ebf;movable=1;resizable=1;rotatable=1;deletable=1;editable=1;locked=0;connectable=1;" vertex="1" parent="1">
          <mxGeometry x="119" y="2140" width="40" height="40" as="geometry" />
        </mxCell>
        <mxCell id="iKyUlA0jwbk502aVOzwF-398" value="5" style="whiteSpace=wrap;html=1;aspect=fixed;strokeWidth=0.5;fillColor=#dae8fc;strokeColor=#6c8ebf;movable=1;resizable=1;rotatable=1;deletable=1;editable=1;locked=0;connectable=1;" vertex="1" parent="1">
          <mxGeometry x="159" y="2140" width="40" height="40" as="geometry" />
        </mxCell>
        <mxCell id="iKyUlA0jwbk502aVOzwF-399" value="7" style="whiteSpace=wrap;html=1;aspect=fixed;strokeWidth=0.5;fillColor=#f8cecc;strokeColor=#b85450;movable=1;resizable=1;rotatable=1;deletable=1;editable=1;locked=0;connectable=1;" vertex="1" parent="1">
          <mxGeometry x="199" y="2140" width="40" height="40" as="geometry" />
        </mxCell>
        <mxCell id="iKyUlA0jwbk502aVOzwF-400" value="∞" style="whiteSpace=wrap;html=1;aspect=fixed;strokeWidth=0.5;fillColor=#f8cecc;strokeColor=#b85450;movable=1;resizable=1;rotatable=1;deletable=1;editable=1;locked=0;connectable=1;" vertex="1" parent="1">
          <mxGeometry x="239" y="2140" width="40" height="40" as="geometry" />
        </mxCell>
        <mxCell id="iKyUlA0jwbk502aVOzwF-401" value="1" style="text;html=1;strokeColor=none;fillColor=none;align=center;verticalAlign=middle;whiteSpace=wrap;rounded=0;movable=1;resizable=1;rotatable=1;deletable=1;editable=1;locked=0;connectable=1;" vertex="1" parent="1">
          <mxGeometry x="79" y="2120" width="40" height="20" as="geometry" />
        </mxCell>
        <mxCell id="iKyUlA0jwbk502aVOzwF-402" value="2" style="text;html=1;strokeColor=none;fillColor=none;align=center;verticalAlign=middle;whiteSpace=wrap;rounded=0;movable=1;resizable=1;rotatable=1;deletable=1;editable=1;locked=0;connectable=1;" vertex="1" parent="1">
          <mxGeometry x="119" y="2120" width="40" height="20" as="geometry" />
        </mxCell>
        <mxCell id="iKyUlA0jwbk502aVOzwF-403" value="3" style="text;html=1;strokeColor=none;fillColor=none;align=center;verticalAlign=middle;whiteSpace=wrap;rounded=0;movable=1;resizable=1;rotatable=1;deletable=1;editable=1;locked=0;connectable=1;" vertex="1" parent="1">
          <mxGeometry x="159" y="2120" width="40" height="20" as="geometry" />
        </mxCell>
        <mxCell id="iKyUlA0jwbk502aVOzwF-404" value="4" style="text;html=1;strokeColor=none;fillColor=none;align=center;verticalAlign=middle;whiteSpace=wrap;rounded=0;movable=1;resizable=1;rotatable=1;deletable=1;editable=1;locked=0;connectable=1;" vertex="1" parent="1">
          <mxGeometry x="199" y="2120" width="40" height="20" as="geometry" />
        </mxCell>
        <mxCell id="iKyUlA0jwbk502aVOzwF-405" value="5" style="text;html=1;strokeColor=none;fillColor=none;align=center;verticalAlign=middle;whiteSpace=wrap;rounded=0;movable=1;resizable=1;rotatable=1;deletable=1;editable=1;locked=0;connectable=1;" vertex="1" parent="1">
          <mxGeometry x="239" y="2120" width="40" height="20" as="geometry" />
        </mxCell>
        <mxCell id="iKyUlA0jwbk502aVOzwF-406" value="L" style="text;html=1;strokeColor=none;fillColor=none;align=center;verticalAlign=middle;whiteSpace=wrap;rounded=0;movable=1;resizable=1;rotatable=1;deletable=1;editable=1;locked=0;connectable=1;" vertex="1" parent="1">
          <mxGeometry x="39" y="2140" width="40" height="40" as="geometry" />
        </mxCell>
        <mxCell id="iKyUlA0jwbk502aVOzwF-407" value="1" style="whiteSpace=wrap;html=1;aspect=fixed;strokeWidth=0.5;fillColor=#dae8fc;strokeColor=#6c8ebf;movable=1;resizable=1;rotatable=1;deletable=1;editable=1;locked=0;connectable=1;" vertex="1" parent="1">
          <mxGeometry x="359" y="2140" width="40" height="40" as="geometry" />
        </mxCell>
        <mxCell id="iKyUlA0jwbk502aVOzwF-408" value="2" style="whiteSpace=wrap;html=1;aspect=fixed;strokeWidth=0.5;fillColor=#dae8fc;strokeColor=#6c8ebf;movable=1;resizable=1;rotatable=1;deletable=1;editable=1;locked=0;connectable=1;" vertex="1" parent="1">
          <mxGeometry x="399" y="2140" width="40" height="40" as="geometry" />
        </mxCell>
        <mxCell id="iKyUlA0jwbk502aVOzwF-409" value="3" style="whiteSpace=wrap;html=1;aspect=fixed;strokeWidth=0.5;fillColor=#dae8fc;strokeColor=#6c8ebf;movable=1;resizable=1;rotatable=1;deletable=1;editable=1;locked=0;connectable=1;" vertex="1" parent="1">
          <mxGeometry x="439" y="2140" width="40" height="40" as="geometry" />
        </mxCell>
        <mxCell id="iKyUlA0jwbk502aVOzwF-410" value="6" style="whiteSpace=wrap;html=1;aspect=fixed;strokeWidth=0.5;fillColor=#dae8fc;strokeColor=#6c8ebf;movable=1;resizable=1;rotatable=1;deletable=1;editable=1;locked=0;connectable=1;" vertex="1" parent="1">
          <mxGeometry x="479" y="2140" width="40" height="40" as="geometry" />
        </mxCell>
        <mxCell id="iKyUlA0jwbk502aVOzwF-411" value="∞" style="whiteSpace=wrap;html=1;aspect=fixed;strokeWidth=0.5;fillColor=#f8cecc;strokeColor=#b85450;movable=1;resizable=1;rotatable=1;deletable=1;editable=1;locked=0;connectable=1;" vertex="1" parent="1">
          <mxGeometry x="519" y="2140" width="40" height="40" as="geometry" />
        </mxCell>
        <mxCell id="iKyUlA0jwbk502aVOzwF-412" value="1" style="text;html=1;strokeColor=none;fillColor=none;align=center;verticalAlign=middle;whiteSpace=wrap;rounded=0;movable=1;resizable=1;rotatable=1;deletable=1;editable=1;locked=0;connectable=1;" vertex="1" parent="1">
          <mxGeometry x="359" y="2120" width="40" height="20" as="geometry" />
        </mxCell>
        <mxCell id="iKyUlA0jwbk502aVOzwF-413" value="2" style="text;html=1;strokeColor=none;fillColor=none;align=center;verticalAlign=middle;whiteSpace=wrap;rounded=0;movable=1;resizable=1;rotatable=1;deletable=1;editable=1;locked=0;connectable=1;" vertex="1" parent="1">
          <mxGeometry x="399" y="2120" width="40" height="20" as="geometry" />
        </mxCell>
        <mxCell id="iKyUlA0jwbk502aVOzwF-414" value="3" style="text;html=1;strokeColor=none;fillColor=none;align=center;verticalAlign=middle;whiteSpace=wrap;rounded=0;movable=1;resizable=1;rotatable=1;deletable=1;editable=1;locked=0;connectable=1;" vertex="1" parent="1">
          <mxGeometry x="439" y="2120" width="40" height="20" as="geometry" />
        </mxCell>
        <mxCell id="iKyUlA0jwbk502aVOzwF-415" value="4" style="text;html=1;strokeColor=none;fillColor=none;align=center;verticalAlign=middle;whiteSpace=wrap;rounded=0;movable=1;resizable=1;rotatable=1;deletable=1;editable=1;locked=0;connectable=1;" vertex="1" parent="1">
          <mxGeometry x="479" y="2120" width="40" height="20" as="geometry" />
        </mxCell>
        <mxCell id="iKyUlA0jwbk502aVOzwF-416" value="5" style="text;html=1;strokeColor=none;fillColor=none;align=center;verticalAlign=middle;whiteSpace=wrap;rounded=0;movable=1;resizable=1;rotatable=1;deletable=1;editable=1;locked=0;connectable=1;" vertex="1" parent="1">
          <mxGeometry x="519" y="2120" width="40" height="20" as="geometry" />
        </mxCell>
        <mxCell id="iKyUlA0jwbk502aVOzwF-417" value="R" style="text;html=1;strokeColor=none;fillColor=none;align=center;verticalAlign=middle;whiteSpace=wrap;rounded=0;movable=1;resizable=1;rotatable=1;deletable=1;editable=1;locked=0;connectable=1;" vertex="1" parent="1">
          <mxGeometry x="319" y="2140" width="40" height="40" as="geometry" />
        </mxCell>
        <mxCell id="iKyUlA0jwbk502aVOzwF-418" value="1" style="whiteSpace=wrap;html=1;aspect=fixed;strokeWidth=0.5;fillColor=#f8cecc;strokeColor=#b85450;movable=1;resizable=1;rotatable=1;deletable=1;editable=1;locked=0;connectable=1;" vertex="1" parent="1">
          <mxGeometry x="159" y="2040" width="40" height="40" as="geometry" />
        </mxCell>
        <mxCell id="iKyUlA0jwbk502aVOzwF-419" value="2" style="whiteSpace=wrap;html=1;aspect=fixed;strokeWidth=0.5;fillColor=#f8cecc;strokeColor=#b85450;movable=1;resizable=1;rotatable=1;deletable=1;editable=1;locked=0;connectable=1;" vertex="1" parent="1">
          <mxGeometry x="199" y="2040" width="40" height="40" as="geometry" />
        </mxCell>
        <mxCell id="iKyUlA0jwbk502aVOzwF-420" value="2" style="whiteSpace=wrap;html=1;aspect=fixed;strokeWidth=0.5;fillColor=#f8cecc;strokeColor=#b85450;movable=1;resizable=1;rotatable=1;deletable=1;editable=1;locked=0;connectable=1;" vertex="1" parent="1">
          <mxGeometry x="239" y="2040" width="40" height="40" as="geometry" />
        </mxCell>
        <mxCell id="iKyUlA0jwbk502aVOzwF-421" value="3" style="whiteSpace=wrap;html=1;aspect=fixed;strokeWidth=0.5;fillColor=#f8cecc;strokeColor=#b85450;movable=1;resizable=1;rotatable=1;deletable=1;editable=1;locked=0;connectable=1;" vertex="1" parent="1">
          <mxGeometry x="279" y="2040" width="40" height="40" as="geometry" />
        </mxCell>
        <mxCell id="iKyUlA0jwbk502aVOzwF-422" value="9" style="text;html=1;strokeColor=none;fillColor=none;align=center;verticalAlign=middle;whiteSpace=wrap;rounded=0;movable=1;resizable=1;rotatable=1;deletable=1;editable=1;locked=0;connectable=1;" vertex="1" parent="1">
          <mxGeometry x="160" y="2020" width="40" height="20" as="geometry" />
        </mxCell>
        <mxCell id="iKyUlA0jwbk502aVOzwF-423" value="10" style="text;html=1;strokeColor=none;fillColor=none;align=center;verticalAlign=middle;whiteSpace=wrap;rounded=0;movable=1;resizable=1;rotatable=1;deletable=1;editable=1;locked=0;connectable=1;" vertex="1" parent="1">
          <mxGeometry x="200" y="2020" width="40" height="20" as="geometry" />
        </mxCell>
        <mxCell id="iKyUlA0jwbk502aVOzwF-424" value="11" style="text;html=1;strokeColor=none;fillColor=none;align=center;verticalAlign=middle;whiteSpace=wrap;rounded=0;movable=1;resizable=1;rotatable=1;deletable=1;editable=1;locked=0;connectable=1;" vertex="1" parent="1">
          <mxGeometry x="240" y="2020" width="40" height="20" as="geometry" />
        </mxCell>
        <mxCell id="iKyUlA0jwbk502aVOzwF-425" value="12" style="text;html=1;strokeColor=none;fillColor=none;align=center;verticalAlign=middle;whiteSpace=wrap;rounded=0;movable=1;resizable=1;rotatable=1;deletable=1;editable=1;locked=0;connectable=1;" vertex="1" parent="1">
          <mxGeometry x="280" y="2020" width="40" height="20" as="geometry" />
        </mxCell>
        <mxCell id="iKyUlA0jwbk502aVOzwF-426" value="A" style="text;html=1;strokeColor=none;fillColor=none;align=center;verticalAlign=middle;whiteSpace=wrap;rounded=0;movable=1;resizable=1;rotatable=1;deletable=1;editable=1;locked=0;connectable=1;" vertex="1" parent="1">
          <mxGeometry x="79" y="2040" width="40" height="40" as="geometry" />
        </mxCell>
        <mxCell id="iKyUlA0jwbk502aVOzwF-427" value="4" style="whiteSpace=wrap;html=1;aspect=fixed;strokeWidth=0.5;fillColor=#f8cecc;strokeColor=#b85450;movable=1;resizable=1;rotatable=1;deletable=1;editable=1;locked=0;connectable=1;" vertex="1" parent="1">
          <mxGeometry x="319" y="2040" width="40" height="40" as="geometry" />
        </mxCell>
        <mxCell id="iKyUlA0jwbk502aVOzwF-428" value="5" style="whiteSpace=wrap;html=1;aspect=fixed;strokeWidth=0.5;fillColor=#f8cecc;strokeColor=#b85450;movable=1;resizable=1;rotatable=1;deletable=1;editable=1;locked=0;connectable=1;" vertex="1" parent="1">
          <mxGeometry x="359" y="2040" width="40" height="40" as="geometry" />
        </mxCell>
        <mxCell id="iKyUlA0jwbk502aVOzwF-429" value="6" style="whiteSpace=wrap;html=1;aspect=fixed;strokeWidth=0.5;fillColor=#f8cecc;strokeColor=#b85450;movable=1;resizable=1;rotatable=1;deletable=1;editable=1;locked=0;connectable=1;" vertex="1" parent="1">
          <mxGeometry x="399" y="2040" width="40" height="40" as="geometry" />
        </mxCell>
        <mxCell id="iKyUlA0jwbk502aVOzwF-430" value="6" style="whiteSpace=wrap;html=1;aspect=fixed;strokeWidth=0.5;fillColor=#dae8fc;strokeColor=#6c8ebf;movable=1;resizable=1;rotatable=1;deletable=1;editable=1;locked=0;connectable=1;" vertex="1" parent="1">
          <mxGeometry x="439" y="2040" width="40" height="40" as="geometry" />
        </mxCell>
        <mxCell id="iKyUlA0jwbk502aVOzwF-431" value="…" style="whiteSpace=wrap;html=1;aspect=fixed;strokeWidth=0.5;fillColor=#dae8fc;strokeColor=#6c8ebf;movable=1;resizable=1;rotatable=1;deletable=1;editable=1;locked=0;connectable=1;" vertex="1" parent="1">
          <mxGeometry x="479" y="2040" width="40" height="40" as="geometry" />
        </mxCell>
        <mxCell id="iKyUlA0jwbk502aVOzwF-432" value="13" style="text;html=1;strokeColor=none;fillColor=none;align=center;verticalAlign=middle;whiteSpace=wrap;rounded=0;movable=1;resizable=1;rotatable=1;deletable=1;editable=1;locked=0;connectable=1;" vertex="1" parent="1">
          <mxGeometry x="320" y="2020" width="40" height="20" as="geometry" />
        </mxCell>
        <mxCell id="iKyUlA0jwbk502aVOzwF-433" value="14" style="text;html=1;strokeColor=none;fillColor=none;align=center;verticalAlign=middle;whiteSpace=wrap;rounded=0;movable=1;resizable=1;rotatable=1;deletable=1;editable=1;locked=0;connectable=1;" vertex="1" parent="1">
          <mxGeometry x="360" y="2020" width="40" height="20" as="geometry" />
        </mxCell>
        <mxCell id="iKyUlA0jwbk502aVOzwF-434" value="15" style="text;html=1;strokeColor=none;fillColor=none;align=center;verticalAlign=middle;whiteSpace=wrap;rounded=0;movable=1;resizable=1;rotatable=1;deletable=1;editable=1;locked=0;connectable=1;" vertex="1" parent="1">
          <mxGeometry x="400" y="2020" width="40" height="20" as="geometry" />
        </mxCell>
        <mxCell id="iKyUlA0jwbk502aVOzwF-435" value="16" style="text;html=1;strokeColor=none;fillColor=none;align=center;verticalAlign=middle;whiteSpace=wrap;rounded=0;movable=1;resizable=1;rotatable=1;deletable=1;editable=1;locked=0;connectable=1;" vertex="1" parent="1">
          <mxGeometry x="440" y="2020" width="40" height="20" as="geometry" />
        </mxCell>
        <mxCell id="iKyUlA0jwbk502aVOzwF-436" value="17" style="text;html=1;strokeColor=none;fillColor=none;align=center;verticalAlign=middle;whiteSpace=wrap;rounded=0;movable=1;resizable=1;rotatable=1;deletable=1;editable=1;locked=0;connectable=1;" vertex="1" parent="1">
          <mxGeometry x="480" y="2020" width="40" height="20" as="geometry" />
        </mxCell>
        <mxCell id="iKyUlA0jwbk502aVOzwF-437" value="…" style="whiteSpace=wrap;html=1;aspect=fixed;strokeWidth=0.5;fillColor=#dae8fc;strokeColor=#6c8ebf;movable=1;resizable=1;rotatable=1;deletable=1;editable=1;locked=0;connectable=1;" vertex="1" parent="1">
          <mxGeometry x="119" y="2040" width="40" height="40" as="geometry" />
        </mxCell>
        <mxCell id="iKyUlA0jwbk502aVOzwF-438" value="8" style="text;html=1;strokeColor=none;fillColor=none;align=center;verticalAlign=middle;whiteSpace=wrap;rounded=0;movable=1;resizable=1;rotatable=1;deletable=1;editable=1;locked=0;connectable=1;" vertex="1" parent="1">
          <mxGeometry x="120" y="2020" width="40" height="20" as="geometry" />
        </mxCell>
        <mxCell id="iKyUlA0jwbk502aVOzwF-439" value="i" style="text;html=1;strokeColor=none;fillColor=none;align=center;verticalAlign=middle;whiteSpace=wrap;rounded=0;movable=1;resizable=1;rotatable=1;deletable=1;editable=1;locked=0;connectable=1;" vertex="1" parent="1">
          <mxGeometry x="79" y="2180" width="40" height="20" as="geometry" />
        </mxCell>
        <mxCell id="iKyUlA0jwbk502aVOzwF-440" value="j" style="text;html=1;strokeColor=none;fillColor=none;align=center;verticalAlign=middle;whiteSpace=wrap;rounded=0;movable=1;resizable=1;rotatable=1;deletable=1;editable=1;locked=0;connectable=1;" vertex="1" parent="1">
          <mxGeometry x="359" y="2180" width="40" height="20" as="geometry" />
        </mxCell>
        <mxCell id="iKyUlA0jwbk502aVOzwF-441" value="(h)" style="text;html=1;strokeColor=none;fillColor=none;align=center;verticalAlign=middle;whiteSpace=wrap;rounded=0;movable=1;resizable=1;rotatable=1;deletable=1;editable=1;locked=0;connectable=1;" vertex="1" parent="1">
          <mxGeometry x="299" y="2200" width="40" height="20" as="geometry" />
        </mxCell>
        <mxCell id="iKyUlA0jwbk502aVOzwF-442" value="2" style="whiteSpace=wrap;html=1;aspect=fixed;strokeWidth=0.5;fillColor=#dae8fc;strokeColor=#6c8ebf;movable=1;resizable=1;rotatable=1;deletable=1;editable=1;locked=0;connectable=1;" vertex="1" parent="1">
          <mxGeometry x="79" y="2420" width="40" height="40" as="geometry" />
        </mxCell>
        <mxCell id="iKyUlA0jwbk502aVOzwF-443" value="4" style="whiteSpace=wrap;html=1;aspect=fixed;strokeWidth=0.5;fillColor=#dae8fc;strokeColor=#6c8ebf;movable=1;resizable=1;rotatable=1;deletable=1;editable=1;locked=0;connectable=1;" vertex="1" parent="1">
          <mxGeometry x="119" y="2420" width="40" height="40" as="geometry" />
        </mxCell>
        <mxCell id="iKyUlA0jwbk502aVOzwF-444" value="5" style="whiteSpace=wrap;html=1;aspect=fixed;strokeWidth=0.5;fillColor=#dae8fc;strokeColor=#6c8ebf;movable=1;resizable=1;rotatable=1;deletable=1;editable=1;locked=0;connectable=1;" vertex="1" parent="1">
          <mxGeometry x="159" y="2420" width="40" height="40" as="geometry" />
        </mxCell>
        <mxCell id="iKyUlA0jwbk502aVOzwF-445" value="7" style="whiteSpace=wrap;html=1;aspect=fixed;strokeWidth=0.5;fillColor=#dae8fc;strokeColor=#6c8ebf;movable=1;resizable=1;rotatable=1;deletable=1;editable=1;locked=0;connectable=1;" vertex="1" parent="1">
          <mxGeometry x="199" y="2420" width="40" height="40" as="geometry" />
        </mxCell>
        <mxCell id="iKyUlA0jwbk502aVOzwF-446" value="∞" style="whiteSpace=wrap;html=1;aspect=fixed;strokeWidth=0.5;fillColor=#f8cecc;strokeColor=#b85450;movable=1;resizable=1;rotatable=1;deletable=1;editable=1;locked=0;connectable=1;" vertex="1" parent="1">
          <mxGeometry x="239" y="2420" width="40" height="40" as="geometry" />
        </mxCell>
        <mxCell id="iKyUlA0jwbk502aVOzwF-447" value="1" style="text;html=1;strokeColor=none;fillColor=none;align=center;verticalAlign=middle;whiteSpace=wrap;rounded=0;movable=1;resizable=1;rotatable=1;deletable=1;editable=1;locked=0;connectable=1;" vertex="1" parent="1">
          <mxGeometry x="79" y="2400" width="40" height="20" as="geometry" />
        </mxCell>
        <mxCell id="iKyUlA0jwbk502aVOzwF-448" value="2" style="text;html=1;strokeColor=none;fillColor=none;align=center;verticalAlign=middle;whiteSpace=wrap;rounded=0;movable=1;resizable=1;rotatable=1;deletable=1;editable=1;locked=0;connectable=1;" vertex="1" parent="1">
          <mxGeometry x="119" y="2400" width="40" height="20" as="geometry" />
        </mxCell>
        <mxCell id="iKyUlA0jwbk502aVOzwF-449" value="3" style="text;html=1;strokeColor=none;fillColor=none;align=center;verticalAlign=middle;whiteSpace=wrap;rounded=0;movable=1;resizable=1;rotatable=1;deletable=1;editable=1;locked=0;connectable=1;" vertex="1" parent="1">
          <mxGeometry x="159" y="2400" width="40" height="20" as="geometry" />
        </mxCell>
        <mxCell id="iKyUlA0jwbk502aVOzwF-450" value="4" style="text;html=1;strokeColor=none;fillColor=none;align=center;verticalAlign=middle;whiteSpace=wrap;rounded=0;movable=1;resizable=1;rotatable=1;deletable=1;editable=1;locked=0;connectable=1;" vertex="1" parent="1">
          <mxGeometry x="199" y="2400" width="40" height="20" as="geometry" />
        </mxCell>
        <mxCell id="iKyUlA0jwbk502aVOzwF-451" value="5" style="text;html=1;strokeColor=none;fillColor=none;align=center;verticalAlign=middle;whiteSpace=wrap;rounded=0;movable=1;resizable=1;rotatable=1;deletable=1;editable=1;locked=0;connectable=1;" vertex="1" parent="1">
          <mxGeometry x="239" y="2400" width="40" height="20" as="geometry" />
        </mxCell>
        <mxCell id="iKyUlA0jwbk502aVOzwF-452" value="L" style="text;html=1;strokeColor=none;fillColor=none;align=center;verticalAlign=middle;whiteSpace=wrap;rounded=0;movable=1;resizable=1;rotatable=1;deletable=1;editable=1;locked=0;connectable=1;" vertex="1" parent="1">
          <mxGeometry x="39" y="2420" width="40" height="40" as="geometry" />
        </mxCell>
        <mxCell id="iKyUlA0jwbk502aVOzwF-453" value="1" style="whiteSpace=wrap;html=1;aspect=fixed;strokeWidth=0.5;fillColor=#dae8fc;strokeColor=#6c8ebf;movable=1;resizable=1;rotatable=1;deletable=1;editable=1;locked=0;connectable=1;" vertex="1" parent="1">
          <mxGeometry x="359" y="2420" width="40" height="40" as="geometry" />
        </mxCell>
        <mxCell id="iKyUlA0jwbk502aVOzwF-454" value="2" style="whiteSpace=wrap;html=1;aspect=fixed;strokeWidth=0.5;fillColor=#dae8fc;strokeColor=#6c8ebf;movable=1;resizable=1;rotatable=1;deletable=1;editable=1;locked=0;connectable=1;" vertex="1" parent="1">
          <mxGeometry x="399" y="2420" width="40" height="40" as="geometry" />
        </mxCell>
        <mxCell id="iKyUlA0jwbk502aVOzwF-455" value="3" style="whiteSpace=wrap;html=1;aspect=fixed;strokeWidth=0.5;fillColor=#dae8fc;strokeColor=#6c8ebf;movable=1;resizable=1;rotatable=1;deletable=1;editable=1;locked=0;connectable=1;" vertex="1" parent="1">
          <mxGeometry x="439" y="2420" width="40" height="40" as="geometry" />
        </mxCell>
        <mxCell id="iKyUlA0jwbk502aVOzwF-456" value="6" style="whiteSpace=wrap;html=1;aspect=fixed;strokeWidth=0.5;fillColor=#dae8fc;strokeColor=#6c8ebf;movable=1;resizable=1;rotatable=1;deletable=1;editable=1;locked=0;connectable=1;" vertex="1" parent="1">
          <mxGeometry x="479" y="2420" width="40" height="40" as="geometry" />
        </mxCell>
        <mxCell id="iKyUlA0jwbk502aVOzwF-457" value="∞" style="whiteSpace=wrap;html=1;aspect=fixed;strokeWidth=0.5;fillColor=#f8cecc;strokeColor=#b85450;movable=1;resizable=1;rotatable=1;deletable=1;editable=1;locked=0;connectable=1;" vertex="1" parent="1">
          <mxGeometry x="519" y="2420" width="40" height="40" as="geometry" />
        </mxCell>
        <mxCell id="iKyUlA0jwbk502aVOzwF-458" value="1" style="text;html=1;strokeColor=none;fillColor=none;align=center;verticalAlign=middle;whiteSpace=wrap;rounded=0;movable=1;resizable=1;rotatable=1;deletable=1;editable=1;locked=0;connectable=1;" vertex="1" parent="1">
          <mxGeometry x="359" y="2400" width="40" height="20" as="geometry" />
        </mxCell>
        <mxCell id="iKyUlA0jwbk502aVOzwF-459" value="2" style="text;html=1;strokeColor=none;fillColor=none;align=center;verticalAlign=middle;whiteSpace=wrap;rounded=0;movable=1;resizable=1;rotatable=1;deletable=1;editable=1;locked=0;connectable=1;" vertex="1" parent="1">
          <mxGeometry x="399" y="2400" width="40" height="20" as="geometry" />
        </mxCell>
        <mxCell id="iKyUlA0jwbk502aVOzwF-460" value="3" style="text;html=1;strokeColor=none;fillColor=none;align=center;verticalAlign=middle;whiteSpace=wrap;rounded=0;movable=1;resizable=1;rotatable=1;deletable=1;editable=1;locked=0;connectable=1;" vertex="1" parent="1">
          <mxGeometry x="439" y="2400" width="40" height="20" as="geometry" />
        </mxCell>
        <mxCell id="iKyUlA0jwbk502aVOzwF-461" value="4" style="text;html=1;strokeColor=none;fillColor=none;align=center;verticalAlign=middle;whiteSpace=wrap;rounded=0;movable=1;resizable=1;rotatable=1;deletable=1;editable=1;locked=0;connectable=1;" vertex="1" parent="1">
          <mxGeometry x="479" y="2400" width="40" height="20" as="geometry" />
        </mxCell>
        <mxCell id="iKyUlA0jwbk502aVOzwF-462" value="5" style="text;html=1;strokeColor=none;fillColor=none;align=center;verticalAlign=middle;whiteSpace=wrap;rounded=0;movable=1;resizable=1;rotatable=1;deletable=1;editable=1;locked=0;connectable=1;" vertex="1" parent="1">
          <mxGeometry x="519" y="2400" width="40" height="20" as="geometry" />
        </mxCell>
        <mxCell id="iKyUlA0jwbk502aVOzwF-463" value="R" style="text;html=1;strokeColor=none;fillColor=none;align=center;verticalAlign=middle;whiteSpace=wrap;rounded=0;movable=1;resizable=1;rotatable=1;deletable=1;editable=1;locked=0;connectable=1;" vertex="1" parent="1">
          <mxGeometry x="319" y="2420" width="40" height="40" as="geometry" />
        </mxCell>
        <mxCell id="iKyUlA0jwbk502aVOzwF-464" value="1" style="whiteSpace=wrap;html=1;aspect=fixed;strokeWidth=0.5;fillColor=#f8cecc;strokeColor=#b85450;movable=1;resizable=1;rotatable=1;deletable=1;editable=1;locked=0;connectable=1;" vertex="1" parent="1">
          <mxGeometry x="159" y="2320" width="40" height="40" as="geometry" />
        </mxCell>
        <mxCell id="iKyUlA0jwbk502aVOzwF-465" value="2" style="whiteSpace=wrap;html=1;aspect=fixed;strokeWidth=0.5;fillColor=#f8cecc;strokeColor=#b85450;movable=1;resizable=1;rotatable=1;deletable=1;editable=1;locked=0;connectable=1;" vertex="1" parent="1">
          <mxGeometry x="199" y="2320" width="40" height="40" as="geometry" />
        </mxCell>
        <mxCell id="iKyUlA0jwbk502aVOzwF-466" value="2" style="whiteSpace=wrap;html=1;aspect=fixed;strokeWidth=0.5;fillColor=#f8cecc;strokeColor=#b85450;movable=1;resizable=1;rotatable=1;deletable=1;editable=1;locked=0;connectable=1;" vertex="1" parent="1">
          <mxGeometry x="239" y="2320" width="40" height="40" as="geometry" />
        </mxCell>
        <mxCell id="iKyUlA0jwbk502aVOzwF-467" value="3" style="whiteSpace=wrap;html=1;aspect=fixed;strokeWidth=0.5;fillColor=#f8cecc;strokeColor=#b85450;movable=1;resizable=1;rotatable=1;deletable=1;editable=1;locked=0;connectable=1;" vertex="1" parent="1">
          <mxGeometry x="279" y="2320" width="40" height="40" as="geometry" />
        </mxCell>
        <mxCell id="iKyUlA0jwbk502aVOzwF-468" value="9" style="text;html=1;strokeColor=none;fillColor=none;align=center;verticalAlign=middle;whiteSpace=wrap;rounded=0;movable=1;resizable=1;rotatable=1;deletable=1;editable=1;locked=0;connectable=1;" vertex="1" parent="1">
          <mxGeometry x="160" y="2300" width="40" height="20" as="geometry" />
        </mxCell>
        <mxCell id="iKyUlA0jwbk502aVOzwF-469" value="10" style="text;html=1;strokeColor=none;fillColor=none;align=center;verticalAlign=middle;whiteSpace=wrap;rounded=0;movable=1;resizable=1;rotatable=1;deletable=1;editable=1;locked=0;connectable=1;" vertex="1" parent="1">
          <mxGeometry x="200" y="2300" width="40" height="20" as="geometry" />
        </mxCell>
        <mxCell id="iKyUlA0jwbk502aVOzwF-470" value="11" style="text;html=1;strokeColor=none;fillColor=none;align=center;verticalAlign=middle;whiteSpace=wrap;rounded=0;movable=1;resizable=1;rotatable=1;deletable=1;editable=1;locked=0;connectable=1;" vertex="1" parent="1">
          <mxGeometry x="240" y="2300" width="40" height="20" as="geometry" />
        </mxCell>
        <mxCell id="iKyUlA0jwbk502aVOzwF-471" value="12" style="text;html=1;strokeColor=none;fillColor=none;align=center;verticalAlign=middle;whiteSpace=wrap;rounded=0;movable=1;resizable=1;rotatable=1;deletable=1;editable=1;locked=0;connectable=1;" vertex="1" parent="1">
          <mxGeometry x="280" y="2300" width="40" height="20" as="geometry" />
        </mxCell>
        <mxCell id="iKyUlA0jwbk502aVOzwF-472" value="A" style="text;html=1;strokeColor=none;fillColor=none;align=center;verticalAlign=middle;whiteSpace=wrap;rounded=0;movable=1;resizable=1;rotatable=1;deletable=1;editable=1;locked=0;connectable=1;" vertex="1" parent="1">
          <mxGeometry x="79" y="2320" width="40" height="40" as="geometry" />
        </mxCell>
        <mxCell id="iKyUlA0jwbk502aVOzwF-473" value="4" style="whiteSpace=wrap;html=1;aspect=fixed;strokeWidth=0.5;fillColor=#f8cecc;strokeColor=#b85450;movable=1;resizable=1;rotatable=1;deletable=1;editable=1;locked=0;connectable=1;" vertex="1" parent="1">
          <mxGeometry x="319" y="2320" width="40" height="40" as="geometry" />
        </mxCell>
        <mxCell id="iKyUlA0jwbk502aVOzwF-474" value="5" style="whiteSpace=wrap;html=1;aspect=fixed;strokeWidth=0.5;fillColor=#f8cecc;strokeColor=#b85450;movable=1;resizable=1;rotatable=1;deletable=1;editable=1;locked=0;connectable=1;" vertex="1" parent="1">
          <mxGeometry x="359" y="2320" width="40" height="40" as="geometry" />
        </mxCell>
        <mxCell id="iKyUlA0jwbk502aVOzwF-475" value="6" style="whiteSpace=wrap;html=1;aspect=fixed;strokeWidth=0.5;fillColor=#f8cecc;strokeColor=#b85450;movable=1;resizable=1;rotatable=1;deletable=1;editable=1;locked=0;connectable=1;" vertex="1" parent="1">
          <mxGeometry x="399" y="2320" width="40" height="40" as="geometry" />
        </mxCell>
        <mxCell id="iKyUlA0jwbk502aVOzwF-476" value="7" style="whiteSpace=wrap;html=1;aspect=fixed;strokeWidth=0.5;fillColor=#f8cecc;strokeColor=#b85450;movable=1;resizable=1;rotatable=1;deletable=1;editable=1;locked=0;connectable=1;" vertex="1" parent="1">
          <mxGeometry x="439" y="2320" width="40" height="40" as="geometry" />
        </mxCell>
        <mxCell id="iKyUlA0jwbk502aVOzwF-477" value="…" style="whiteSpace=wrap;html=1;aspect=fixed;strokeWidth=0.5;fillColor=#dae8fc;strokeColor=#6c8ebf;movable=1;resizable=1;rotatable=1;deletable=1;editable=1;locked=0;connectable=1;" vertex="1" parent="1">
          <mxGeometry x="479" y="2320" width="40" height="40" as="geometry" />
        </mxCell>
        <mxCell id="iKyUlA0jwbk502aVOzwF-478" value="13" style="text;html=1;strokeColor=none;fillColor=none;align=center;verticalAlign=middle;whiteSpace=wrap;rounded=0;movable=1;resizable=1;rotatable=1;deletable=1;editable=1;locked=0;connectable=1;" vertex="1" parent="1">
          <mxGeometry x="320" y="2300" width="40" height="20" as="geometry" />
        </mxCell>
        <mxCell id="iKyUlA0jwbk502aVOzwF-479" value="14" style="text;html=1;strokeColor=none;fillColor=none;align=center;verticalAlign=middle;whiteSpace=wrap;rounded=0;movable=1;resizable=1;rotatable=1;deletable=1;editable=1;locked=0;connectable=1;" vertex="1" parent="1">
          <mxGeometry x="360" y="2300" width="40" height="20" as="geometry" />
        </mxCell>
        <mxCell id="iKyUlA0jwbk502aVOzwF-480" value="15" style="text;html=1;strokeColor=none;fillColor=none;align=center;verticalAlign=middle;whiteSpace=wrap;rounded=0;movable=1;resizable=1;rotatable=1;deletable=1;editable=1;locked=0;connectable=1;" vertex="1" parent="1">
          <mxGeometry x="400" y="2300" width="40" height="20" as="geometry" />
        </mxCell>
        <mxCell id="iKyUlA0jwbk502aVOzwF-481" value="16" style="text;html=1;strokeColor=none;fillColor=none;align=center;verticalAlign=middle;whiteSpace=wrap;rounded=0;movable=1;resizable=1;rotatable=1;deletable=1;editable=1;locked=0;connectable=1;" vertex="1" parent="1">
          <mxGeometry x="440" y="2300" width="40" height="20" as="geometry" />
        </mxCell>
        <mxCell id="iKyUlA0jwbk502aVOzwF-482" value="17" style="text;html=1;strokeColor=none;fillColor=none;align=center;verticalAlign=middle;whiteSpace=wrap;rounded=0;movable=1;resizable=1;rotatable=1;deletable=1;editable=1;locked=0;connectable=1;" vertex="1" parent="1">
          <mxGeometry x="480" y="2300" width="40" height="20" as="geometry" />
        </mxCell>
        <mxCell id="iKyUlA0jwbk502aVOzwF-483" value="…" style="whiteSpace=wrap;html=1;aspect=fixed;strokeWidth=0.5;fillColor=#dae8fc;strokeColor=#6c8ebf;movable=1;resizable=1;rotatable=1;deletable=1;editable=1;locked=0;connectable=1;" vertex="1" parent="1">
          <mxGeometry x="119" y="2320" width="40" height="40" as="geometry" />
        </mxCell>
        <mxCell id="iKyUlA0jwbk502aVOzwF-484" value="8" style="text;html=1;strokeColor=none;fillColor=none;align=center;verticalAlign=middle;whiteSpace=wrap;rounded=0;movable=1;resizable=1;rotatable=1;deletable=1;editable=1;locked=0;connectable=1;" vertex="1" parent="1">
          <mxGeometry x="120" y="2300" width="40" height="20" as="geometry" />
        </mxCell>
        <mxCell id="iKyUlA0jwbk502aVOzwF-485" value="i" style="text;html=1;strokeColor=none;fillColor=none;align=center;verticalAlign=middle;whiteSpace=wrap;rounded=0;movable=1;resizable=1;rotatable=1;deletable=1;editable=1;locked=0;connectable=1;" vertex="1" parent="1">
          <mxGeometry x="79" y="2460" width="40" height="20" as="geometry" />
        </mxCell>
        <mxCell id="iKyUlA0jwbk502aVOzwF-486" value="j" style="text;html=1;strokeColor=none;fillColor=none;align=center;verticalAlign=middle;whiteSpace=wrap;rounded=0;movable=1;resizable=1;rotatable=1;deletable=1;editable=1;locked=0;connectable=1;" vertex="1" parent="1">
          <mxGeometry x="359" y="2460" width="40" height="20" as="geometry" />
        </mxCell>
        <mxCell id="iKyUlA0jwbk502aVOzwF-487" value="(i)" style="text;html=1;strokeColor=none;fillColor=none;align=center;verticalAlign=middle;whiteSpace=wrap;rounded=0;movable=1;resizable=1;rotatable=1;deletable=1;editable=1;locked=0;connectable=1;" vertex="1" parent="1">
          <mxGeometry x="299" y="2480" width="40" height="20" as="geometry" />
        </mxCell>
      </root>
    </mxGraphModel>
  </diagram>
</mxfile>
